<?xml version="1.0" standalone="no"?>
<!DOCTYPE svg PUBLIC "-//W3C//DTD SVG 1.1//EN" "http://www.w3.org/Graphics/SVG/1.1/DTD/svg11.dtd" >
<svg xmlns="http://www.w3.org/2000/svg" xmlns:xlink="http://www.w3.org/1999/xlink" version="1.1">
<metadata>
Created by FontForge 20201107 at Thu Apr 16 21:04:16 2020
 By 
Copyright (c) 2020 by Connary Fagen. All rights reserved.
</metadata>
<defs>
<font id="IntegralCF-Regular" horiz-adv-x="956" >
  <font-face 
    font-family="Integral CF"
    font-weight="400"
    font-stretch="normal"
    units-per-em="1200"
    panose-1="0 0 5 0 0 0 0 0 0 0"
    ascent="1088"
    descent="-112"
    x-height="840"
    cap-height="840"
    bbox="-229 -419 1509 1067"
    underline-thickness="50"
    underline-position="-150"
    unicode-range="U+0020-25CA"
  />
<missing-glyph horiz-adv-x="525" 
d="M431 900v-1050h-333v1050h333zM350 830h-174v-35h69v-39h-70v-34h175v34h-70v39h70v35zM280 694h-105v-109h175v36h-70v73zM245 659v-38h-35v38h35zM350 557h-175v-35h70v-39h-70v-34h105v73h70v35zM350 494h-35v-70h-140v-35h175v105zM350 366h-105v-59h35v24h35v-49
h-105v84h-35v-119h175v119zM350 184h-175v-119h175v119zM315 149v-49h-105v49h105zM350 41h-175v-35h74l-74 -49v-35h175v35h-107l73 49h34v35z" />
    <glyph glyph-name=".notdef" horiz-adv-x="525" 
d="M431 900v-1050h-333v1050h333zM350 830h-174v-35h69v-39h-70v-34h175v34h-70v39h70v35zM280 694h-105v-109h175v36h-70v73zM245 659v-38h-35v38h35zM350 557h-175v-35h70v-39h-70v-34h105v73h70v35zM350 494h-35v-70h-140v-35h175v105zM350 366h-105v-59h35v24h35v-49
h-105v84h-35v-119h175v119zM350 184h-175v-119h175v119zM315 149v-49h-105v49h105zM350 41h-175v-35h74l-74 -49v-35h175v35h-107l73 49h34v35z" />
    <glyph glyph-name=".null" horiz-adv-x="0" 
 />
    <glyph glyph-name="nonmarkingreturn" horiz-adv-x="400" 
 />
    <glyph glyph-name="space" unicode=" " horiz-adv-x="253" 
 />
    <glyph glyph-name="exclam" unicode="!" horiz-adv-x="291" 
d="M80 291l-38 549h207l-39 -549h-130zM145 -16q-43 0 -74.5 31t-31.5 74t31.5 74.5t74.5 31.5q44 0 75.5 -31t31.5 -75q0 -43 -31.5 -74t-75.5 -31z" />
    <glyph glyph-name="quotedbl" unicode="&#x22;" horiz-adv-x="516" 
d="M65 492l-15 348h178l-15 -348h-148zM303 492l-14 348h177l-14 -348h-149z" />
    <glyph glyph-name="numbersign" unicode="#" horiz-adv-x="748" 
d="M710 514h-100v-179h100v-148h-100v-187h-161v187h-150v-187h-161v187h-100v148h100v179h-100v140h100v186h161v-186h150v186h161v-186h100v-140zM449 335v179h-150v-179h150z" />
    <glyph glyph-name="dollar" unicode="$" horiz-adv-x="750" 
d="M725 262q0 -98 -83.5 -155t-229.5 -65v-62h-78v62q-142 6 -225 66.5t-86 174.5h176q7 -91 135 -103v189q-50 10 -83.5 18t-77 25.5t-69.5 38.5t-45 55.5t-19 77.5q0 95 80.5 150.5t213.5 62.5v65h78v-65q81 -5 142 -29t102 -78t42 -133h-172q-10 91 -114 103v-182
q37 -6 60.5 -10t60 -13t60 -19t51 -26.5t43.5 -36.5t27 -48.5t11 -62.5zM221 581q0 -59 113 -88v169q-50 -5 -81.5 -25.5t-31.5 -55.5zM412 180q128 12 128 84q0 33 -31 53t-97 36v-173z" />
    <glyph glyph-name="percent" unicode="%" horiz-adv-x="1083" 
d="M314 -31l-92 64l547 840l92 -63zM257 433q-102 0 -157 59t-55 151q0 91 55 150t157 59q103 0 158 -59t55 -150q0 -92 -55 -151t-158 -59zM257 562q39 0 59.5 23t20.5 58t-20.5 57.5t-59.5 22.5t-59 -22t-20 -58q0 -35 20 -58t59 -23zM825 -12q-103 0 -158 59t-55 151
q0 91 55 150t158 59q102 0 157 -59t55 -150q0 -92 -55 -151t-157 -59zM825 117q39 0 59 23t20 58q0 36 -20 58.5t-59 22.5t-59.5 -22.5t-20.5 -58.5q0 -35 20.5 -58t59.5 -23z" />
    <glyph glyph-name="ampersand" unicode="&#x26;" horiz-adv-x="987" 
d="M955 98l-86 -117l-105 80q-125 -89 -323 -89q-183 0 -295.5 73.5t-112.5 198.5q0 78 48 141.5t142 95.5q-74 76 -74 157q0 95 87 159.5t238 64.5q158 0 251 -74.5t92 -223.5h-176q1 78 -44.5 112.5t-123.5 34.5q-67 0 -103.5 -23t-36.5 -65q0 -37 30 -69.5t115 -97.5
l248 -186q38 72 38 167h177q-3 -159 -76 -271zM460 129q97 0 165 38l-299 228q-94 -38 -94 -122q0 -71 65.5 -107.5t162.5 -36.5z" />
    <glyph glyph-name="quotesingle" unicode="'" horiz-adv-x="278" 
d="M65 492l-15 348h178l-15 -348h-148z" />
    <glyph glyph-name="parenleft" unicode="(" horiz-adv-x="530" 
d="M488 -145q-87 0 -157.5 20t-118 52t-82.5 79.5t-54 95t-30.5 107.5t-14.5 107.5t-3 103.5t3 103t14.5 107t30.5 107.5t54 95t82.5 79.5t118 52t157.5 20v-165q-68 0 -117.5 -20.5t-79 -54.5t-47.5 -87t-24 -108.5t-6 -128.5q0 -74 6 -129.5t24 -108.5t47.5 -87t79 -54.5
t117.5 -20.5v-165z" />
    <glyph glyph-name="parenright" unicode=")" horiz-adv-x="530" 
d="M43 -145v165q68 0 117 20.5t79 54.5t47.5 87t23.5 108.5t6 129.5q0 73 -6 128.5t-23.5 108.5t-47.5 87t-79 54.5t-117 20.5v165q87 0 157.5 -20t117.5 -52t82 -79.5t54.5 -95t31 -107.5t14.5 -107t3 -103t-3 -103.5t-14.5 -107.5t-31 -107.5t-54.5 -95t-82 -79.5
t-117.5 -52t-157.5 -20z" />
    <glyph glyph-name="asterisk" unicode="*" horiz-adv-x="628" 
d="M578 652l-162 -81l162 -81l-62 -108l-151 100l11 -181h-124l11 181l-151 -100l-62 108l162 81l-162 81l62 107l151 -100l-11 181h124l-11 -181l151 100z" />
    <glyph glyph-name="plus" unicode="+" horiz-adv-x="712" 
d="M662 500v-160h-222v-222h-168v222h-222v160h222v223h168v-223h222z" />
    <glyph glyph-name="comma" unicode="," horiz-adv-x="329" 
d="M116 -231q18 104 16 231h-94v167h254v-39q0 -125 -15 -219t-36 -140h-125z" />
    <glyph glyph-name="hyphen" unicode="-" horiz-adv-x="660" 
d="M40 335v168h580v-168h-580z" />
    <glyph glyph-name="period" unicode="." horiz-adv-x="291" 
d="M145 -16q-43 0 -74.5 31t-31.5 74t31.5 74.5t74.5 31.5q44 0 75.5 -31t31.5 -75q0 -43 -31.5 -74t-75.5 -31z" />
    <glyph glyph-name="slash" unicode="/" horiz-adv-x="633" 
d="M10 0l388 840h225l-388 -840h-225z" />
    <glyph glyph-name="zero" unicode="0" horiz-adv-x="854" 
d="M427 -22q-189 0 -294 111.5t-105 330.5t105 330.5t294 111.5t294 -112t105 -330t-105 -330t-294 -112zM427 147q95 0 149 66.5t54 206.5t-54 206.5t-149 66.5q-96 0 -149.5 -66.5t-53.5 -206.5t53.5 -206.5t149.5 -66.5z" />
    <glyph glyph-name="one" unicode="1" horiz-adv-x="686" 
d="M466 155h173v-155h-591v155h218v488q-70 -61 -202 -61v168q107 0 202 90h200v-685z" />
    <glyph glyph-name="two" unicode="2" horiz-adv-x="764" 
d="M732 606q0 -62 -24 -108.5t-63.5 -75t-87.5 -50.5t-97.5 -41.5t-92 -41t-73.5 -55.5t-39 -79h471v-155h-693v101q0 76 28 135t72.5 95.5t98 65t107.5 49.5t98.5 41t72.5 47.5t28 62.5q0 46 -34 75t-107 29q-74 0 -118 -29.5t-43 -91.5h-195q0 136 88.5 209t257.5 73
q167 0 256 -67.5t89 -188.5z" />
    <glyph glyph-name="three" unicode="3" horiz-adv-x="794" 
d="M385 -22q-179 0 -266.5 69t-85.5 209h180q4 -118 169 -118q83 0 133 29t50 83q0 51 -50 86t-156 35h-32v122h32q102 0 145.5 33.5t43.5 78.5q0 46 -42.5 72t-114.5 26q-77 0 -119 -30.5t-43 -90.5h-179q-1 138 87.5 209t254.5 71q160 0 248.5 -62.5t88.5 -164.5
q0 -129 -135 -186v-13q75 -20 121 -73.5t46 -133.5q0 -116 -102 -183.5t-274 -67.5z" />
    <glyph glyph-name="four" unicode="4" horiz-adv-x="840" 
d="M686 325h117v-154h-117v-171h-200v171h-443v154l409 515h234v-515zM230 325h256v325z" />
    <glyph glyph-name="five" unicode="5" horiz-adv-x="782" 
d="M382 -22q-170 0 -258 70.5t-86 203.5h179q5 -58 50.5 -86.5t113.5 -28.5q83 0 132 41.5t49 108.5q0 68 -45.5 106.5t-124.5 38.5q-107 0 -162 -68h-182l81 476h549v-154h-401l-30 -188q26 23 77.5 40t122.5 17q131 0 217 -73t86 -204q0 -140 -97 -220t-271 -80z" />
    <glyph glyph-name="six" unicode="6" horiz-adv-x="783" 
d="M429 543q148 0 239 -70t91 -204t-95 -212.5t-264 -78.5q-376 0 -376 441q0 121 30 209.5t84 138t120.5 72.5t147.5 23q154 0 244.5 -68t93.5 -194h-163q-12 55 -58 82t-117 27q-198 0 -196 -231q70 65 219 65zM398 130q80 0 130 38.5t50 104.5q0 67 -48.5 104t-131.5 37
q-82 0 -130 -37.5t-48 -103.5t49 -104.5t129 -38.5z" />
    <glyph glyph-name="seven" unicode="7" horiz-adv-x="750" 
d="M33 840h689v-163l-421 -677h-210l423 677h-481v163z" />
    <glyph glyph-name="eight" unicode="8" horiz-adv-x="818" 
d="M409 -22q-192 0 -284 72.5t-92 190.5q0 148 147 220v13q-90 56 -90 166q0 99 81 160.5t238 61.5t238.5 -61.5t81.5 -160.5q0 -109 -91 -166v-13q147 -72 147 -220q0 -118 -92 -190.5t-284 -72.5zM409 515q70 0 106 27t36 76t-36.5 76t-105.5 27t-105.5 -27t-36.5 -76
t36 -76t106 -27zM409 131q87 0 134.5 36t47.5 97q0 60 -47 95t-135 35t-135 -35t-47 -95q0 -61 47.5 -97t134.5 -36z" />
    <glyph glyph-name="nine" unicode="9" horiz-adv-x="783" 
d="M384 862q375 0 375 -441q0 -121 -30 -209.5t-84 -138t-120.5 -72.5t-147.5 -23q-153 0 -244 68.5t-94 193.5h163q12 -55 58 -82t117 -27q198 0 196 232q-70 -65 -219 -65q-148 0 -239 69.5t-91 203.5t95 212.5t265 78.5zM385 427q83 0 130.5 37t47.5 103t-49 105t-129 39
t-130 -39t-50 -105q0 -67 48.5 -103.5t131.5 -36.5z" />
    <glyph glyph-name="colon" unicode=":" horiz-adv-x="291" 
d="M145 531q-43 0 -74.5 31t-31.5 74q0 44 31.5 75t74.5 31q44 0 75.5 -31t31.5 -75q0 -43 -31.5 -74t-75.5 -31zM145 89q-44 0 -75 31t-31 74t31.5 74t74.5 31q44 0 75.5 -31t31.5 -74t-31.5 -74t-75.5 -31z" />
    <glyph glyph-name="semicolon" unicode=";" horiz-adv-x="332" 
d="M169 531q-43 0 -74.5 31t-31.5 74q0 44 31.5 75t74.5 31q44 0 75.5 -31t31.5 -75q0 -43 -31.5 -74t-75.5 -31zM117 -120q18 104 16 231h-94v167h254v-39q0 -125 -15 -219t-36 -140h-125z" />
    <glyph glyph-name="less" unicode="&#x3c;" horiz-adv-x="650" 
d="M600 108l-550 200v222l550 202v-173l-391 -129v-22l391 -129v-171z" />
    <glyph glyph-name="equal" unicode="=" horiz-adv-x="662" 
d="M50 446v168h562v-168h-562zM50 227v167h562v-167h-562z" />
    <glyph glyph-name="greater" unicode="&#x3e;" horiz-adv-x="662" 
d="M63 108v171l390 129v22l-390 129v173l549 -202v-222z" />
    <glyph glyph-name="question" unicode="?" horiz-adv-x="748" 
d="M273 286q-7 68 16.5 113t62.5 66.5t78.5 38t68.5 40t29 59.5q0 45 -42 71.5t-112 26.5q-75 0 -122.5 -33.5t-47.5 -107.5h-181q-5 152 87.5 227t263.5 75q163 0 257 -59.5t94 -179.5q0 -63 -27 -104t-65.5 -61.5t-77 -39t-66 -50.5t-27.5 -82h-189zM367 -16
q-43 0 -74.5 31t-31.5 74t31.5 74.5t74.5 31.5q44 0 75.5 -31t31.5 -75q0 -43 -31.5 -74t-75.5 -31z" />
    <glyph glyph-name="at" unicode="@" horiz-adv-x="974" 
d="M901 214q-45 -108 -156 -175t-258 -67q-203 0 -331 125.5t-128 322.5t128 322.5t331 125.5q202 0 331 -125t129 -311q0 -74 -41.5 -114t-113.5 -40q-61 0 -89 29.5t-23 79.5l25 251h-80l-18 -45h-13q-51 59 -143 59q-91 0 -153 -63t-62 -172q0 -110 62 -173.5t157 -63.5
q107 0 152 80h12q40 -80 150 -80q80 0 129 37zM461 555q51 0 81.5 -37.5t30.5 -102.5q0 -63 -30.5 -100.5t-81.5 -37.5t-83.5 37.5t-32.5 100.5q0 64 32.5 102t83.5 38z" />
    <glyph glyph-name="A" unicode="A" 
d="M737 0l-52 141h-414l-52 -141h-206l325 840h280l326 -840h-207zM327 292h302l-132 359h-38z" />
    <glyph glyph-name="B" unicode="B" horiz-adv-x="869" 
d="M694 441q143 -58 143 -204q0 -110 -83.5 -173.5t-261.5 -63.5h-449v840h451q168 0 242 -59t74 -156q0 -119 -116 -171v-13zM479 684h-237v-186h237q140 0 140 92q0 94 -140 94zM489 156q69 0 107.5 30t38.5 81t-38 78t-108 27h-247v-216h247z" />
    <glyph glyph-name="C" unicode="C" horiz-adv-x="930" 
d="M488 -28q-204 0 -332 125t-128 323t128 323t332 125q73 0 137.5 -17.5t122.5 -54t98.5 -102.5t55.5 -155h-191q-52 156 -223 156q-113 0 -188 -77.5t-75 -197.5t75 -197.5t188 -77.5q171 0 223 157h191q-12 -72 -41 -129t-68.5 -94.5t-90.5 -61.5t-103.5 -34.5
t-110.5 -10.5z" />
    <glyph glyph-name="D" unicode="D" horiz-adv-x="911" 
d="M429 840q119 0 207.5 -31.5t140.5 -89.5t77 -132.5t25 -166.5t-25 -166.5t-77 -132.5t-140.5 -89.5t-207.5 -31.5h-386v840h386zM428 168q122 0 186.5 65t64.5 187t-64.5 187t-186.5 65h-184l-2 -504h186z" />
    <glyph glyph-name="E" unicode="E" horiz-adv-x="793" 
d="M43 0v840h707v-163h-508v-184h490v-144h-490v-185h508v-164h-707z" />
    <glyph glyph-name="F" unicode="F" horiz-adv-x="791" 
d="M43 0v840h706v-167h-507v-198h479v-151h-479v-324h-199z" />
    <glyph glyph-name="G" unicode="G" horiz-adv-x="963" 
d="M470 -28q-190 0 -316 126t-126 322q0 198 128.5 323t335.5 125q96 0 178 -29t146.5 -97.5t86.5 -169.5h-199q-25 57 -80.5 90t-128.5 33q-119 0 -194.5 -77t-75.5 -198q0 -120 76 -198t192 -78q81 0 145 41t83 124h-244v135h439v-444h-125l-2 136q-46 -74 -126 -119
t-193 -45z" />
    <glyph glyph-name="H" unicode="H" horiz-adv-x="901" 
d="M659 840h200v-840h-200v337h-417v-337h-199v840h199v-337h417v337z" />
    <glyph glyph-name="I" unicode="I" horiz-adv-x="285" 
d="M43 0v840h199v-840h-199z" />
    <glyph glyph-name="J" unicode="J" horiz-adv-x="781" 
d="M380 -28q-351 0 -347 334h198q1 -85 43 -124t110 -39q154 0 154 189v508h200v-499q0 -196 -91.5 -282.5t-266.5 -86.5z" />
    <glyph glyph-name="K" unicode="K" horiz-adv-x="882" 
d="M883 0h-208l-275 346h-14l-145 -150v-196h-198v840h198v-403h15l382 403h226l-350 -373z" />
    <glyph glyph-name="L" unicode="L" horiz-adv-x="761" 
d="M43 0v840h199v-673h484v-167h-683z" />
    <glyph glyph-name="M" unicode="M" horiz-adv-x="1027" 
d="M43 0v840h255l208 -589h15l208 589h255v-840h-191v506h-17l-185 -506h-155l-185 506h-17v-506h-191z" />
    <glyph glyph-name="N" unicode="N" horiz-adv-x="920" 
d="M43 0v840h231l390 -565h19v565h195v-840h-227l-395 565h-18v-565h-195z" />
    <glyph glyph-name="O" unicode="O" horiz-adv-x="979" 
d="M489 -28q-205 0 -333 125t-128 323t128 323t333 125q206 0 334 -125t128 -323t-128 -323t-334 -125zM489 145q114 0 189 76.5t75 198.5t-75 198.5t-189 76.5q-113 0 -188.5 -76.5t-75.5 -198.5t75.5 -198.5t188.5 -76.5z" />
    <glyph glyph-name="P" unicode="P" horiz-adv-x="860" 
d="M43 0v840h439q168 0 257 -79t89 -229t-89 -228.5t-257 -78.5h-240v-225h-199zM242 392h227q75 0 117 35.5t42 104.5t-42 105t-117 36h-227v-281z" />
    <glyph glyph-name="Q" unicode="Q" horiz-adv-x="979" 
d="M951 426q0 -166 -116 -287l112 -114q-47 -63 -112 -114l-124 116q-108 -55 -222 -55q-205 0 -333 125t-128 323t128 323t333 125t333.5 -124t128.5 -318zM225 420q0 -122 75.5 -198.5t188.5 -76.5q114 0 189 76.5t75 198.5t-75 198.5t-189 76.5q-113 0 -188.5 -76.5
t-75.5 -198.5z" />
    <glyph glyph-name="R" unicode="R" horiz-adv-x="873" 
d="M849 0h-198l-138 250h-271v-250h-199v840h441q169 0 256.5 -77t87.5 -224q0 -85 -38 -149t-105 -100zM242 673v-270h231q76 0 116.5 34.5t40.5 100.5t-40.5 100.5t-116.5 34.5h-231z" />
    <glyph glyph-name="S" unicode="S" horiz-adv-x="837" 
d="M413 -28q-194 0 -292.5 71t-97.5 217h180q5 -61 57 -95t153 -35q96 0 148.5 30t52.5 80q0 43 -35 67t-112 37l-104 18q-56 10 -95 19.5t-84.5 29t-73 44.5t-46 66t-18.5 94q0 120 96.5 186.5t272.5 66.5q370 0 373 -285h-179q-22 127 -198 127q-85 0 -129.5 -27.5
t-44.5 -76.5q0 -75 127 -99l91 -16q6 -1 19 -3q152 -28 215 -59q122 -61 123 -195q0 -126 -102 -194t-297 -68z" />
    <glyph glyph-name="T" unicode="T" horiz-adv-x="904" 
d="M867 840v-167h-315v-673h-200v673h-314v167h829z" />
    <glyph glyph-name="U" unicode="U" horiz-adv-x="895" 
d="M448 -28q-197 0 -301 94.5t-104 283.5v490h201v-485q0 -102 51.5 -158.5t152.5 -56.5t153 56.5t52 158.5v485h200v-490q0 -189 -104 -283.5t-301 -94.5z" />
    <glyph glyph-name="V" unicode="V" 
d="M338 0l-325 840h206l246 -651h26l246 651h207l-326 -840h-280z" />
    <glyph glyph-name="W" unicode="W" horiz-adv-x="1241" 
d="M212 0l-188 840h201l134 -627h18l160 627h167l161 -627h18l133 627h202l-188 -840h-270l-130 530h-19l-130 -530h-269z" />
    <glyph glyph-name="X" unicode="X" horiz-adv-x="869" 
d="M8 0l301 420v11l-294 409h217l193 -275h19l192 275h218l-293 -409v-11l300 -420h-220l-197 286h-19l-197 -286h-220z" />
    <glyph glyph-name="Y" unicode="Y" horiz-adv-x="909" 
d="M901 840l-347 -571v-269h-200v270l-346 570h212l224 -376h21l224 376h212z" />
    <glyph glyph-name="Z" unicode="Z" horiz-adv-x="804" 
d="M28 0v162l493 495v16h-480v167h735v-162l-497 -495v-16h491v-167h-742z" />
    <glyph glyph-name="bracketleft" unicode="[" horiz-adv-x="515" 
d="M43 -135v1110h429v-167h-230v-776h230v-167h-429z" />
    <glyph glyph-name="backslash" unicode="\" horiz-adv-x="633" 
d="M623 0h-225l-388 840h225z" />
    <glyph glyph-name="bracketright" unicode="]" horiz-adv-x="515" 
d="M472 -135h-429v167h229v776h-229v167h429v-1110z" />
    <glyph glyph-name="asciicircum" unicode="^" horiz-adv-x="720" 
d="M48 325l200 549h221l203 -549h-173l-130 390h-21l-130 -390h-170z" />
    <glyph glyph-name="underscore" unicode="_" horiz-adv-x="713" 
d="M50 -167v167h613v-167h-613z" />
    <glyph glyph-name="grave" unicode="`" horiz-adv-x="250" 
d="M250 676h-179l-71 164h179z" />
    <glyph glyph-name="a" unicode="a" 
d="M737 0l-52 141h-414l-52 -141h-206l325 840h280l326 -840h-207zM327 292h302l-132 359h-38z" />
    <glyph glyph-name="b" unicode="b" horiz-adv-x="869" 
d="M694 441q143 -58 143 -204q0 -110 -83.5 -173.5t-261.5 -63.5h-449v840h451q168 0 242 -59t74 -156q0 -119 -116 -171v-13zM479 684h-237v-186h237q140 0 140 92q0 94 -140 94zM489 156q69 0 107.5 30t38.5 81t-38 78t-108 27h-247v-216h247z" />
    <glyph glyph-name="c" unicode="c" horiz-adv-x="930" 
d="M488 -28q-204 0 -332 125t-128 323t128 323t332 125q73 0 137.5 -17.5t122.5 -54t98.5 -102.5t55.5 -155h-191q-52 156 -223 156q-113 0 -188 -77.5t-75 -197.5t75 -197.5t188 -77.5q171 0 223 157h191q-12 -72 -41 -129t-68.5 -94.5t-90.5 -61.5t-103.5 -34.5
t-110.5 -10.5z" />
    <glyph glyph-name="d" unicode="d" horiz-adv-x="911" 
d="M429 840q119 0 207.5 -31.5t140.5 -89.5t77 -132.5t25 -166.5t-25 -166.5t-77 -132.5t-140.5 -89.5t-207.5 -31.5h-386v840h386zM428 168q122 0 186.5 65t64.5 187t-64.5 187t-186.5 65h-184l-2 -504h186z" />
    <glyph glyph-name="e" unicode="e" horiz-adv-x="793" 
d="M43 0v840h707v-163h-508v-184h490v-144h-490v-185h508v-164h-707z" />
    <glyph glyph-name="f" unicode="f" horiz-adv-x="791" 
d="M43 0v840h706v-167h-507v-198h479v-151h-479v-324h-199z" />
    <glyph glyph-name="g" unicode="g" horiz-adv-x="963" 
d="M470 -28q-190 0 -316 126t-126 322q0 198 128.5 323t335.5 125q96 0 178 -29t146.5 -97.5t86.5 -169.5h-199q-25 57 -80.5 90t-128.5 33q-119 0 -194.5 -77t-75.5 -198q0 -120 76 -198t192 -78q81 0 145 41t83 124h-244v135h439v-444h-125l-2 136q-46 -74 -126 -119
t-193 -45z" />
    <glyph glyph-name="h" unicode="h" horiz-adv-x="901" 
d="M659 840h200v-840h-200v337h-417v-337h-199v840h199v-337h417v337z" />
    <glyph glyph-name="i" unicode="i" horiz-adv-x="285" 
d="M43 0v840h199v-840h-199z" />
    <glyph glyph-name="j" unicode="j" horiz-adv-x="781" 
d="M380 -28q-351 0 -347 334h198q1 -85 43 -124t110 -39q154 0 154 189v508h200v-499q0 -196 -91.5 -282.5t-266.5 -86.5z" />
    <glyph glyph-name="k" unicode="k" horiz-adv-x="882" 
d="M883 0h-208l-275 346h-14l-145 -150v-196h-198v840h198v-403h15l382 403h226l-350 -373z" />
    <glyph glyph-name="l" unicode="l" horiz-adv-x="761" 
d="M43 0v840h199v-673h484v-167h-683z" />
    <glyph glyph-name="m" unicode="m" horiz-adv-x="1027" 
d="M43 0v840h255l208 -589h15l208 589h255v-840h-191v506h-17l-185 -506h-155l-185 506h-17v-506h-191z" />
    <glyph glyph-name="n" unicode="n" horiz-adv-x="920" 
d="M43 0v840h231l390 -565h19v565h195v-840h-227l-395 565h-18v-565h-195z" />
    <glyph glyph-name="o" unicode="o" horiz-adv-x="979" 
d="M489 -28q-205 0 -333 125t-128 323t128 323t333 125q206 0 334 -125t128 -323t-128 -323t-334 -125zM489 145q114 0 189 76.5t75 198.5t-75 198.5t-189 76.5q-113 0 -188.5 -76.5t-75.5 -198.5t75.5 -198.5t188.5 -76.5z" />
    <glyph glyph-name="p" unicode="p" horiz-adv-x="860" 
d="M43 0v840h439q168 0 257 -79t89 -229t-89 -228.5t-257 -78.5h-240v-225h-199zM242 392h227q75 0 117 35.5t42 104.5t-42 105t-117 36h-227v-281z" />
    <glyph glyph-name="q" unicode="q" horiz-adv-x="979" 
d="M951 426q0 -166 -116 -287l112 -114q-47 -63 -112 -114l-124 116q-108 -55 -222 -55q-205 0 -333 125t-128 323t128 323t333 125t333.5 -124t128.5 -318zM225 420q0 -122 75.5 -198.5t188.5 -76.5q114 0 189 76.5t75 198.5t-75 198.5t-189 76.5q-113 0 -188.5 -76.5
t-75.5 -198.5z" />
    <glyph glyph-name="r" unicode="r" horiz-adv-x="873" 
d="M849 0h-198l-138 250h-271v-250h-199v840h441q169 0 256.5 -77t87.5 -224q0 -85 -38 -149t-105 -100zM242 673v-270h231q76 0 116.5 34.5t40.5 100.5t-40.5 100.5t-116.5 34.5h-231z" />
    <glyph glyph-name="s" unicode="s" horiz-adv-x="837" 
d="M413 -28q-194 0 -292.5 71t-97.5 217h180q5 -61 57 -95t153 -35q96 0 148.5 30t52.5 80q0 43 -35 67t-112 37l-104 18q-56 10 -95 19.5t-84.5 29t-73 44.5t-46 66t-18.5 94q0 120 96.5 186.5t272.5 66.5q370 0 373 -285h-179q-22 127 -198 127q-85 0 -129.5 -27.5
t-44.5 -76.5q0 -75 127 -99l91 -16q6 -1 19 -3q152 -28 215 -59q122 -61 123 -195q0 -126 -102 -194t-297 -68z" />
    <glyph glyph-name="t" unicode="t" horiz-adv-x="904" 
d="M867 840v-167h-315v-673h-200v673h-314v167h829z" />
    <glyph glyph-name="u" unicode="u" horiz-adv-x="895" 
d="M448 -28q-197 0 -301 94.5t-104 283.5v490h201v-485q0 -102 51.5 -158.5t152.5 -56.5t153 56.5t52 158.5v485h200v-490q0 -189 -104 -283.5t-301 -94.5z" />
    <glyph glyph-name="v" unicode="v" 
d="M338 0l-325 840h206l246 -651h26l246 651h207l-326 -840h-280z" />
    <glyph glyph-name="w" unicode="w" horiz-adv-x="1241" 
d="M212 0l-188 840h201l134 -627h18l160 627h167l161 -627h18l133 627h202l-188 -840h-270l-130 530h-19l-130 -530h-269z" />
    <glyph glyph-name="x" unicode="x" horiz-adv-x="869" 
d="M8 0l301 420v11l-294 409h217l193 -275h19l192 275h218l-293 -409v-11l300 -420h-220l-197 286h-19l-197 -286h-220z" />
    <glyph glyph-name="y" unicode="y" horiz-adv-x="909" 
d="M901 840l-347 -571v-269h-200v270l-346 570h212l224 -376h21l224 376h212z" />
    <glyph glyph-name="z" unicode="z" horiz-adv-x="804" 
d="M28 0v162l493 495v16h-480v167h735v-162l-497 -495v-16h491v-167h-742z" />
    <glyph glyph-name="braceleft" unicode="{" horiz-adv-x="639" 
d="M293 -135q-50 0 -87.5 28.5t-37.5 97.5v275l-123 144v21l123 143v275q0 69 37.5 97.5t87.5 28.5h301v-167h-184q-42 0 -42 -37v-204l-113 -136v-21l113 -136v-205q0 -37 42 -37h184v-167h-301z" />
    <glyph glyph-name="bar" unicode="|" horiz-adv-x="285" 
d="M43 -100v1040h199v-1040h-199z" />
    <glyph glyph-name="braceright" unicode="}" horiz-adv-x="639" 
d="M346 -135h-301v167h184q42 0 42 37v205l113 136v21l-113 136v204q0 37 -42 37h-184v167h301q50 0 87.5 -28.5t37.5 -97.5v-275l123 -143v-21l-123 -144v-275q0 -69 -37.5 -97.5t-87.5 -28.5z" />
    <glyph glyph-name="asciitilde" unicode="~" horiz-adv-x="664" 
d="M441 318q-35 0 -69 13.5t-57 29t-52.5 28.5t-54.5 13q-66 0 -73 -59h-84q-8 91 42.5 138t129.5 47q54 0 125.5 -42t106.5 -42q32 1 51 16.5t23 42.5h84q8 -91 -42.5 -137.5t-129.5 -47.5z" />
    <glyph glyph-name="exclamdown" unicode="&#xa1;" horiz-adv-x="460" 
d="M146 640q44 0 75.5 -31t31.5 -74t-31.5 -74t-75.5 -31t-75 31t-31 74t31.5 74t74.5 31zM81 333h130l39 -549h-207z" />
    <glyph glyph-name="cent" unicode="&#xa2;" horiz-adv-x="850" 
d="M446 170q155 0 203 143h174q-11 -66 -37.5 -118t-62.5 -85.5t-82.5 -55.5t-94 -31.5t-100.5 -9.5q-80 0 -155 24l-17 -37h-85l32 69q-91 52 -142 143t-51 208q0 180 116.5 293.5t301.5 113.5q64 0 119 -14l12 27h85l-24 -52q153 -73 185 -260h-174q-25 73 -81 109
l-208 -452q39 -15 86 -15zM208 420q0 -124 85 -196l203 441q-20 5 -50 5q-103 0 -170.5 -70t-67.5 -180z" />
    <glyph glyph-name="sterling" unicode="&#xa3;" horiz-adv-x="771" 
d="M395 697q-74 0 -113.5 -32t-39.5 -86q0 -27 8 -49.5t24.5 -52.5t22.5 -43h305v-96h-285q-2 -116 -86 -176v-7h511v-155h-714v155q51 25 89.5 74t38.5 99v10h-128v96h90q-1 2 -9.5 16t-10.5 18t-9.5 17t-10 19t-8 18.5t-7.5 21.5t-5 21.5t-4 24.5t-1 25q0 112 92 179.5
t254 67.5q169 0 262 -73t82 -209h-191q-4 59 -46.5 88t-110.5 29z" />
    <glyph glyph-name="currency" unicode="&#xa4;" horiz-adv-x="788" 
d="M667 571q0 -68 -31 -125l52 -52l-95 -93l-47 47q-68 -46 -152 -46t-152 46l-47 -47l-95 93l52 52q-31 57 -31 125q0 69 33 129l-54 54l95 94l51 -51q68 43 148 43t148 -43l51 51l95 -94l-54 -54q33 -60 33 -129zM394 425q68 0 109 43.5t41 102.5t-41 103t-109 44
t-109 -44t-41 -103t41 -102.5t109 -43.5z" />
    <glyph glyph-name="yen" unicode="&#xa5;" horiz-adv-x="909" 
d="M901 840l-297 -489h213v-93h-263v-48h263v-94h-263v-116h-200v116h-256v94h256v48h-256v93h207l-297 489h212l224 -376h21l224 376h212z" />
    <glyph glyph-name="brokenbar" unicode="&#xa6;" horiz-adv-x="285" 
d="M43 471v469h199v-469h-199zM43 -100v469h199v-469h-199z" />
    <glyph glyph-name="section" unicode="&#xa7;" horiz-adv-x="839" 
d="M707 180q106 -57 106 -183q0 -127 -101 -194.5t-297 -67.5q-195 0 -294 71t-98 218h182q5 -62 57 -96.5t153 -34.5q96 0 148 29.5t52 80.5q0 84 -148 109l-101 18q-40 7 -67.5 12.5t-63.5 16t-60.5 22t-50.5 30t-41.5 40.5t-25.5 52.5t-10 67.5q0 128 125 186
q-125 62 -125 196q0 119 97 186t272 67q370 0 373 -287h-179q-21 128 -198 128q-84 0 -128.5 -27t-44.5 -76q0 -81 127 -104l89 -17l33 -6q44 -8 67 -12.5t63.5 -15.5t63 -21.5t51 -29.5t43.5 -41.5t26 -54.5t11 -71q0 -127 -106 -191zM239 379q0 -40 32 -71t96 -43l61 -11
q86 -12 136.5 25.5t50.5 91.5q0 89 -148 116l-71 12q-57 8 -107 -26.5t-50 -93.5z" />
    <glyph glyph-name="dieresis" unicode="&#xa8;" horiz-adv-x="439" 
d="M83 690q-34 0 -58.5 23t-24.5 56q0 34 24.5 57t58.5 23t58.5 -23t24.5 -57q0 -33 -24.5 -56t-58.5 -23zM356 690q-34 0 -58.5 23t-24.5 56q0 34 24.5 57t58.5 23t58.5 -23t24.5 -57q0 -33 -24.5 -56t-58.5 -23z" />
    <glyph glyph-name="copyright" unicode="&#xa9;" horiz-adv-x="636" 
d="M318 322q-119 0 -194.5 76t-75.5 193q0 118 75.5 194.5t194.5 76.5t195 -76.5t76 -194.5q0 -117 -76 -193t-195 -76zM321 431q52 0 93 26.5t53 80.5l-66 -1q-26 -50 -82 -50q-43 0 -70.5 28t-27.5 76t27.5 76t70.5 28q56 0 82 -49h66q-12 54 -53 80.5t-93 26.5
q-71 0 -117.5 -45.5t-46.5 -116.5q0 -70 46.5 -115t117.5 -45z" />
    <glyph glyph-name="ordfeminine" unicode="&#xaa;" horiz-adv-x="550" 
d="M402 840h100v-432h-100l-19 44q-52 -44 -122 -44q-87 0 -150 64t-63 155t63 155t150 64q71 0 124 -46zM269 531q42 0 69.5 28t27.5 68t-28 68.5t-69 28.5t-69 -28.5t-28 -68.5t28 -68t69 -28z" />
    <glyph glyph-name="guillemotleft" unicode="&#xab;" horiz-adv-x="807" 
d="M461 135h-207l-194 285l194 285h207l-194 -285zM746 135h-207l-194 285l194 285h207l-194 -285z" />
    <glyph glyph-name="logicalnot" unicode="&#xac;" horiz-adv-x="707" 
d="M483 300v95h-470v146h644v-241h-174z" />
    <glyph glyph-name="uni00AD" unicode="&#xad;" horiz-adv-x="660" 
d="M40 335v168h580v-168h-580z" />
    <glyph glyph-name="registered" unicode="&#xae;" horiz-adv-x="636" 
d="M318 322q-119 0 -194.5 76t-75.5 193q0 118 75.5 194.5t194.5 76.5t195 -76.5t76 -194.5q0 -117 -76 -193t-195 -76zM189 431h66v97h95l56 -97h71l-65 111q57 28 57 94q0 51 -34.5 79.5t-98.5 28.5h-147v-313zM255 584v103h83q61 0 61 -51q0 -52 -61 -52h-83z" />
    <glyph glyph-name="macron" unicode="&#xaf;" horiz-adv-x="400" 
d="M0 692v148h400v-148h-400z" />
    <glyph glyph-name="degree" unicode="&#xb0;" horiz-adv-x="532" 
d="M266 407q-95 0 -158 62t-63 157q0 96 63 158t158 62t158 -62t63 -158q0 -95 -63 -157t-158 -62zM266 539q41 0 64 25.5t23 61.5t-23 62t-64 26q-42 0 -65 -26t-23 -62t23 -61.5t65 -25.5z" />
    <glyph glyph-name="plusminus" unicode="&#xb1;" horiz-adv-x="712" 
d="M440 640h222v-160h-222v-222h-168v222h-222v160h222v223h168v-223zM75 0v167h562v-167h-562z" />
    <glyph glyph-name="uni00B2" unicode="&#xb2;" horiz-adv-x="591" 
d="M558 669q0 -46 -18 -81t-48 -56.5t-66 -38t-73 -31t-69 -31t-55 -42t-29 -59.5h354v-116h-521v76q0 57 21 101.5t54.5 72t73.5 48.5t80.5 36.5t74 31t54.5 36t21 46.5q0 78 -105 78q-56 0 -89 -22t-33 -69h-146q0 103 66.5 158t193.5 55q125 0 192 -51t67 -142z" />
    <glyph glyph-name="uni00B3" unicode="&#xb3;" horiz-adv-x="613" 
d="M298 197q-134 0 -200 52t-65 157h136q3 -89 126 -89q63 0 100.5 22t37.5 62q0 39 -38 65.5t-117 26.5h-24v91h24q77 0 109.5 25t32.5 59q0 35 -32 54.5t-86 19.5q-121 0 -121 -91h-135q-1 103 65.5 157t191.5 54q120 0 186.5 -47.5t66.5 -123.5q0 -96 -101 -140v-9
q56 -15 90.5 -55.5t34.5 -100.5q0 -87 -76.5 -138t-205.5 -51z" />
    <glyph glyph-name="acute" unicode="&#xb4;" horiz-adv-x="250" 
d="M0 676l71 164h179l-71 -164h-179z" />
    <glyph glyph-name="uni00B5" unicode="&#xb5;" horiz-adv-x="766" 
d="M524 680h199v-680h-194l-5 94h-21q-32 -52 -90 -80t-126 -28q-24 0 -45 3v-139h-199v830h199v-404q0 -67 37 -98t94 -31q70 0 110.5 39.5t40.5 74.5v419z" />
    <glyph glyph-name="paragraph" unicode="&#xb6;" horiz-adv-x="1136" 
d="M592 0v230h-198q-178 0 -272 78t-94 227t94 227t272 78h398v-840h-200zM894 0v840h200v-840h-200z" />
    <glyph glyph-name="periodcentered" unicode="&#xb7;" horiz-adv-x="373" 
d="M187 315q-44 0 -75.5 31t-31.5 74t31.5 74t75.5 31t75 -31t31 -74t-31.5 -74t-74.5 -31z" />
    <glyph glyph-name="cedilla" unicode="&#xb8;" horiz-adv-x="230" 
d="M120 -39q45 -3 77.5 -31.5t32.5 -78.5q0 -72 -68 -101.5t-162 -11.5v87q38 -8 63 -5t36.5 10.5t11.5 18.5q0 12 -11.5 21t-36.5 11.5t-63 -8.5v61l77 66h88z" />
    <glyph glyph-name="uni00B9" unicode="&#xb9;" horiz-adv-x="538" 
d="M361 324h130v-116h-444v116h164v367q-53 -46 -152 -46v126q80 0 152 68h150v-515z" />
    <glyph glyph-name="ordmasculine" unicode="&#xba;" horiz-adv-x="531" 
d="M265 409q-90 0 -153.5 63.5t-63.5 154.5t63.5 155t153.5 64q91 0 154.5 -64t63.5 -155t-63.5 -154.5t-154.5 -63.5zM265 531q41 0 68.5 27.5t27.5 68.5t-27.5 69t-68.5 28t-68.5 -28t-27.5 -69t27.5 -68.5t68.5 -27.5z" />
    <glyph glyph-name="guillemotright" unicode="&#xbb;" horiz-adv-x="806" 
d="M60 135l194 285l-194 285h207l194 -285l-194 -285h-207zM345 135l194 285l-194 285h207l194 -285l-194 -285h-207z" />
    <glyph glyph-name="questiondown" unicode="&#xbf;" horiz-adv-x="783" 
d="M416 640q44 0 75.5 -31t31.5 -74t-31.5 -74t-75.5 -31t-75 31t-31 74t31.5 74t74.5 31zM510 338q7 -68 -16.5 -113t-62.5 -66.5t-78.5 -38t-68.5 -40t-29 -59.5q0 -45 42.5 -71.5t111.5 -26.5q75 0 123 33.5t48 107.5h181q4 -152 -88.5 -227t-263.5 -75q-162 0 -256.5 60
t-94.5 179q0 63 27 104t66 61.5t77.5 39.5t65.5 51t27 81h189z" />
    <glyph glyph-name="Agrave" unicode="&#xc0;" 
d="M570 886h-179l-71 164h179zM737 0l-52 141h-414l-52 -141h-206l325 840h280l326 -840h-207zM327 292h302l-132 359h-38z" />
    <glyph glyph-name="Aacute" unicode="&#xc1;" 
d="M639 1050l-71 -164h-179l71 164h179zM737 0l-52 141h-414l-52 -141h-206l325 840h280l326 -840h-207zM327 292h302l-132 359h-38z" />
    <glyph glyph-name="Acircumflex" unicode="&#xc2;" 
d="M454 951l-59 -65h-176l137 164h245l137 -164h-176l-59 65h-49zM737 0l-52 141h-414l-52 -141h-206l325 840h280l326 -840h-207zM327 292h302l-132 359h-38z" />
    <glyph glyph-name="Atilde" unicode="&#xc3;" 
d="M320 912h-67q-7 73 33.5 110.5t103.5 37.5q44 0 101.5 -33.5t85.5 -33.5q52 0 59 47h66q7 -73 -33 -110.5t-104 -37.5q-43 0 -100 33.5t-86 33.5q-53 0 -59 -47zM737 0l-52 141h-414l-52 -141h-206l325 840h280l326 -840h-207zM327 292h302l-132 359h-38z" />
    <glyph glyph-name="Adieresis" unicode="&#xc4;" 
d="M342 900q-34 0 -58.5 23t-24.5 56q0 34 24.5 57t58.5 23t58.5 -23t24.5 -57q0 -33 -24.5 -56t-58.5 -23zM615 900q-34 0 -58.5 23t-24.5 56q0 34 24.5 57t58.5 23t58.5 -23t24.5 -57q0 -33 -24.5 -56t-58.5 -23zM737 0l-52 141h-414l-52 -141h-206l325 840h280l326 -840
h-207zM327 292h302l-132 359h-38z" />
    <glyph glyph-name="Aring" unicode="&#xc5;" 
d="M737 0l-52 141h-414l-52 -141h-206l325 840h55q-42 37 -42 94q0 52 36.5 89t90.5 37q53 0 89.5 -37t36.5 -89q0 -57 -42 -94h56l326 -840h-207zM477 969q-15 0 -24.5 -9.5t-9.5 -24.5q0 -16 9.5 -25.5t24.5 -9.5t25 9.5t10 25.5q0 15 -10 24.5t-25 9.5zM327 292h302
l-132 359h-38z" />
    <glyph glyph-name="AE" unicode="&#xc6;" horiz-adv-x="1336" 
d="M1294 677h-508v-184h490v-144h-490v-185h508v-164h-708v142h-302l-69 -142h-202l406 840h875v-163zM358 292h228v381h-42z" />
    <glyph glyph-name="Ccedilla" unicode="&#xc7;" horiz-adv-x="930" 
d="M488 145q171 0 223 157h191q-14 -85 -51 -148.5t-90 -101t-113 -56.5t-129 -23l-14 -12q45 -3 77.5 -31.5t32.5 -78.5q0 -72 -68 -101.5t-162 -11.5v87q38 -8 63 -5t36.5 10.5t11.5 18.5q0 12 -11.5 21t-36.5 11.5t-63 -8.5v61l47 41q-181 17 -292.5 139t-111.5 306
q0 198 128 323t332 125q73 0 137.5 -17.5t122.5 -54t98.5 -102.5t55.5 -155h-191q-52 156 -223 156q-113 0 -188 -77.5t-75 -197.5t75 -197.5t188 -77.5z" />
    <glyph glyph-name="Egrave" unicode="&#xc8;" horiz-adv-x="793" 
d="M483 886h-179l-71 164h179zM43 0v840h707v-163h-508v-184h490v-144h-490v-185h508v-164h-707z" />
    <glyph glyph-name="Eacute" unicode="&#xc9;" horiz-adv-x="793" 
d="M302 886l71 164h179l-71 -164h-179zM43 0v840h707v-163h-508v-184h490v-144h-490v-185h508v-164h-707z" />
    <glyph glyph-name="Ecircumflex" unicode="&#xca;" horiz-adv-x="793" 
d="M132 886l137 164h245l137 -164h-176l-59 65h-49l-59 -65h-176zM43 0v840h707v-163h-508v-184h490v-144h-490v-185h508v-164h-707z" />
    <glyph glyph-name="Edieresis" unicode="&#xcb;" horiz-adv-x="793" 
d="M255 900q-34 0 -58.5 23t-24.5 56q0 34 24.5 57t58.5 23t58.5 -23t24.5 -57q0 -33 -24.5 -56t-58.5 -23zM528 900q-34 0 -58.5 23t-24.5 56q0 34 24.5 57t58.5 23t58.5 -23t24.5 -57q0 -33 -24.5 -56t-58.5 -23zM43 0v840h707v-163h-508v-184h490v-144h-490v-185h508
v-164h-707z" />
    <glyph glyph-name="Igrave" unicode="&#xcc;" horiz-adv-x="285" 
d="M234 886h-179l-71 164h179zM43 0v840h199v-840h-199z" />
    <glyph glyph-name="Iacute" unicode="&#xcd;" horiz-adv-x="285" 
d="M53 886l71 164h179l-71 -164h-179zM43 0v840h199v-840h-199z" />
    <glyph glyph-name="Icircumflex" unicode="&#xce;" horiz-adv-x="285" 
d="M-117 886l137 164h245l137 -164h-176l-59 65h-49l-59 -65h-176zM43 0v840h199v-840h-199z" />
    <glyph glyph-name="Idieresis" unicode="&#xcf;" horiz-adv-x="285" 
d="M6 900q-34 0 -58.5 23t-24.5 56q0 34 24.5 57t58.5 23t58.5 -23t24.5 -57q0 -33 -24.5 -56t-58.5 -23zM279 900q-34 0 -58.5 23t-24.5 56q0 34 24.5 57t58.5 23t58.5 -23t24.5 -57q0 -33 -24.5 -56t-58.5 -23zM43 0v840h199v-840h-199z" />
    <glyph glyph-name="Eth" unicode="&#xd0;" horiz-adv-x="965" 
d="M483 840q119 0 207.5 -31.5t140.5 -89.5t77 -132.5t25 -166.5t-25 -166.5t-77 -132.5t-140.5 -89.5t-207.5 -31.5h-386v346h-92v149h92v345h386zM482 168q123 0 187 65t64 187t-64 187t-187 65h-184v-177h138v-149h-139v-178h185z" />
    <glyph glyph-name="Ntilde" unicode="&#xd1;" horiz-adv-x="920" 
d="M547 892q-43 0 -100 33.5t-86 33.5q-53 0 -59 -47h-67q-7 73 33.5 110.5t103.5 37.5q44 0 101.5 -33.5t85.5 -33.5q52 0 59 47h66q7 -73 -33 -110.5t-104 -37.5zM43 0v840h231l390 -565h19v565h195v-840h-227l-395 565h-18v-565h-195z" />
    <glyph glyph-name="Ograve" unicode="&#xd2;" horiz-adv-x="979" 
d="M581 890h-179l-71 164h179zM489 -28q-205 0 -333 125t-128 323t128 323t333 125q206 0 334 -125t128 -323t-128 -323t-334 -125zM489 145q114 0 189 76.5t75 198.5t-75 198.5t-189 76.5q-113 0 -188.5 -76.5t-75.5 -198.5t75.5 -198.5t188.5 -76.5z" />
    <glyph glyph-name="Oacute" unicode="&#xd3;" horiz-adv-x="979" 
d="M400 890l71 164h179l-71 -164h-179zM489 -28q-205 0 -333 125t-128 323t128 323t333 125q206 0 334 -125t128 -323t-128 -323t-334 -125zM489 145q114 0 189 76.5t75 198.5t-75 198.5t-189 76.5q-113 0 -188.5 -76.5t-75.5 -198.5t75.5 -198.5t188.5 -76.5z" />
    <glyph glyph-name="Ocircumflex" unicode="&#xd4;" horiz-adv-x="979" 
d="M230 890l137 164h245l137 -164h-176l-59 65h-49l-59 -65h-176zM489 -28q-205 0 -333 125t-128 323t128 323t333 125q206 0 334 -125t128 -323t-128 -323t-334 -125zM489 145q114 0 189 76.5t75 198.5t-75 198.5t-189 76.5q-113 0 -188.5 -76.5t-75.5 -198.5t75.5 -198.5
t188.5 -76.5z" />
    <glyph glyph-name="Otilde" unicode="&#xd5;" horiz-adv-x="979" 
d="M576 896q-44 0 -101 33.5t-85 33.5q-53 0 -59 -47h-67q-7 73 33.5 110.5t103.5 37.5q44 0 101.5 -33.5t85.5 -33.5q52 0 59 47h66q7 -73 -33 -110.5t-104 -37.5zM489 -28q-205 0 -333 125t-128 323t128 323t333 125q206 0 334 -125t128 -323t-128 -323t-334 -125z
M489 145q114 0 189 76.5t75 198.5t-75 198.5t-189 76.5q-113 0 -188.5 -76.5t-75.5 -198.5t75.5 -198.5t188.5 -76.5z" />
    <glyph glyph-name="Odieresis" unicode="&#xd6;" horiz-adv-x="979" 
d="M353 904q-34 0 -58.5 23t-24.5 56q0 34 24.5 57t58.5 23t58.5 -23t24.5 -57q0 -33 -24.5 -56t-58.5 -23zM626 904q-34 0 -58.5 23t-24.5 56q0 34 24.5 57t58.5 23t58.5 -23t24.5 -57q0 -33 -24.5 -56t-58.5 -23zM489 -28q-205 0 -333 125t-128 323t128 323t333 125
q206 0 334 -125t128 -323t-128 -323t-334 -125zM489 145q114 0 189 76.5t75 198.5t-75 198.5t-189 76.5q-113 0 -188.5 -76.5t-75.5 -198.5t75.5 -198.5t188.5 -76.5z" />
    <glyph glyph-name="multiply" unicode="&#xd7;" horiz-adv-x="646" 
d="M595 557l-157 -158l157 -157l-113 -113l-157 157l-157 -157l-118 118l157 158l-157 157l113 113l157 -157l157 157z" />
    <glyph glyph-name="Oslash" unicode="&#xd8;" horiz-adv-x="979" 
d="M731 810q104 -56 162 -157.5t58 -232.5q0 -198 -128 -323t-334 -125q-71 0 -137 17l-18 -40h-131l39 84q-101 57 -157.5 158t-56.5 229q0 198 128 323t333 125q69 0 131 -15l18 39h131zM225 420q0 -138 95 -217l225 487q-30 5 -56 5q-113 0 -188.5 -76.5t-75.5 -198.5z
M489 145q114 0 189 76.5t75 198.5q0 144 -100 221l-226 -489q28 -7 62 -7z" />
    <glyph glyph-name="Ugrave" unicode="&#xd9;" horiz-adv-x="895" 
d="M539 886h-179l-71 164h179zM448 -28q-197 0 -301 94.5t-104 283.5v490h201v-485q0 -102 51.5 -158.5t152.5 -56.5t153 56.5t52 158.5v485h200v-490q0 -189 -104 -283.5t-301 -94.5z" />
    <glyph glyph-name="Uacute" unicode="&#xda;" horiz-adv-x="895" 
d="M358 886l71 164h179l-71 -164h-179zM448 -28q-197 0 -301 94.5t-104 283.5v490h201v-485q0 -102 51.5 -158.5t152.5 -56.5t153 56.5t52 158.5v485h200v-490q0 -189 -104 -283.5t-301 -94.5z" />
    <glyph glyph-name="Ucircumflex" unicode="&#xdb;" horiz-adv-x="895" 
d="M188 886l137 164h245l137 -164h-176l-59 65h-49l-59 -65h-176zM448 -28q-197 0 -301 94.5t-104 283.5v490h201v-485q0 -102 51.5 -158.5t152.5 -56.5t153 56.5t52 158.5v485h200v-490q0 -189 -104 -283.5t-301 -94.5z" />
    <glyph glyph-name="Udieresis" unicode="&#xdc;" horiz-adv-x="895" 
d="M311 900q-34 0 -58.5 23t-24.5 56q0 34 24.5 57t58.5 23t58.5 -23t24.5 -57q0 -33 -24.5 -56t-58.5 -23zM584 900q-34 0 -58.5 23t-24.5 56q0 34 24.5 57t58.5 23t58.5 -23t24.5 -57q0 -33 -24.5 -56t-58.5 -23zM448 -28q-197 0 -301 94.5t-104 283.5v490h201v-485
q0 -102 51.5 -158.5t152.5 -56.5t153 56.5t52 158.5v485h200v-490q0 -189 -104 -283.5t-301 -94.5z" />
    <glyph glyph-name="Yacute" unicode="&#xdd;" horiz-adv-x="909" 
d="M615 1050l-71 -164h-179l71 164h179zM901 840l-347 -571v-269h-200v270l-346 570h212l224 -376h21l224 376h212z" />
    <glyph glyph-name="Thorn" unicode="&#xde;" horiz-adv-x="839" 
d="M440 725q178 0 272.5 -78t94.5 -227t-94.5 -227t-272.5 -78h-198v-115h-199v840h199v-115h198zM445 282q77 0 119.5 34.5t42.5 103.5t-42.5 103.5t-118.5 34.5h-204v-276h203z" />
    <glyph glyph-name="germandbls" unicode="&#xdf;" horiz-adv-x="855" 
d="M43 0v582q0 143 98 211.5t269 68.5q186 0 271 -67.5t85 -167.5q0 -118 -108 -165v-13q164 -50 164 -209q0 -110 -85 -175t-265 -65h-157v154h155q75 0 114.5 30t39.5 84q0 52 -39.5 81.5t-114.5 29.5h-155v116h125q67 0 102.5 24t35.5 67q0 50 -40 78t-118 28
q-84 0 -131 -29.5t-47 -89.5v-573h-199z" />
    <glyph glyph-name="agrave" unicode="&#xe0;" 
d="M570 886h-179l-71 164h179zM737 0l-52 141h-414l-52 -141h-206l325 840h280l326 -840h-207zM327 292h302l-132 359h-38z" />
    <glyph glyph-name="aacute" unicode="&#xe1;" 
d="M639 1050l-71 -164h-179l71 164h179zM737 0l-52 141h-414l-52 -141h-206l325 840h280l326 -840h-207zM327 292h302l-132 359h-38z" />
    <glyph glyph-name="acircumflex" unicode="&#xe2;" 
d="M454 951l-59 -65h-176l137 164h245l137 -164h-176l-59 65h-49zM737 0l-52 141h-414l-52 -141h-206l325 840h280l326 -840h-207zM327 292h302l-132 359h-38z" />
    <glyph glyph-name="atilde" unicode="&#xe3;" 
d="M320 912h-67q-7 73 33.5 110.5t103.5 37.5q44 0 101.5 -33.5t85.5 -33.5q52 0 59 47h66q7 -73 -33 -110.5t-104 -37.5q-43 0 -100 33.5t-86 33.5q-53 0 -59 -47zM737 0l-52 141h-414l-52 -141h-206l325 840h280l326 -840h-207zM327 292h302l-132 359h-38z" />
    <glyph glyph-name="adieresis" unicode="&#xe4;" 
d="M342 900q-34 0 -58.5 23t-24.5 56q0 34 24.5 57t58.5 23t58.5 -23t24.5 -57q0 -33 -24.5 -56t-58.5 -23zM615 900q-34 0 -58.5 23t-24.5 56q0 34 24.5 57t58.5 23t58.5 -23t24.5 -57q0 -33 -24.5 -56t-58.5 -23zM737 0l-52 141h-414l-52 -141h-206l325 840h280l326 -840
h-207zM327 292h302l-132 359h-38z" />
    <glyph glyph-name="aring" unicode="&#xe5;" 
d="M737 0l-52 141h-414l-52 -141h-206l325 840h55q-42 37 -42 94q0 52 36.5 89t90.5 37q53 0 89.5 -37t36.5 -89q0 -57 -42 -94h56l326 -840h-207zM477 969q-15 0 -24.5 -9.5t-9.5 -24.5q0 -16 9.5 -25.5t24.5 -9.5t25 9.5t10 25.5q0 15 -10 24.5t-25 9.5zM327 292h302
l-132 359h-38z" />
    <glyph glyph-name="ae" unicode="&#xe6;" horiz-adv-x="1336" 
d="M1294 677h-508v-184h490v-144h-490v-185h508v-164h-708v142h-302l-69 -142h-202l406 840h875v-163zM358 292h228v381h-42z" />
    <glyph glyph-name="ccedilla" unicode="&#xe7;" horiz-adv-x="930" 
d="M488 145q171 0 223 157h191q-14 -85 -51 -148.5t-90 -101t-113 -56.5t-129 -23l-14 -12q45 -3 77.5 -31.5t32.5 -78.5q0 -72 -68 -101.5t-162 -11.5v87q38 -8 63 -5t36.5 10.5t11.5 18.5q0 12 -11.5 21t-36.5 11.5t-63 -8.5v61l47 41q-181 17 -292.5 139t-111.5 306
q0 198 128 323t332 125q73 0 137.5 -17.5t122.5 -54t98.5 -102.5t55.5 -155h-191q-52 156 -223 156q-113 0 -188 -77.5t-75 -197.5t75 -197.5t188 -77.5z" />
    <glyph glyph-name="egrave" unicode="&#xe8;" horiz-adv-x="793" 
d="M483 886h-179l-71 164h179zM43 0v840h707v-163h-508v-184h490v-144h-490v-185h508v-164h-707z" />
    <glyph glyph-name="eacute" unicode="&#xe9;" horiz-adv-x="793" 
d="M302 886l71 164h179l-71 -164h-179zM43 0v840h707v-163h-508v-184h490v-144h-490v-185h508v-164h-707z" />
    <glyph glyph-name="ecircumflex" unicode="&#xea;" horiz-adv-x="793" 
d="M132 886l137 164h245l137 -164h-176l-59 65h-49l-59 -65h-176zM43 0v840h707v-163h-508v-184h490v-144h-490v-185h508v-164h-707z" />
    <glyph glyph-name="edieresis" unicode="&#xeb;" horiz-adv-x="793" 
d="M255 900q-34 0 -58.5 23t-24.5 56q0 34 24.5 57t58.5 23t58.5 -23t24.5 -57q0 -33 -24.5 -56t-58.5 -23zM528 900q-34 0 -58.5 23t-24.5 56q0 34 24.5 57t58.5 23t58.5 -23t24.5 -57q0 -33 -24.5 -56t-58.5 -23zM43 0v840h707v-163h-508v-184h490v-144h-490v-185h508
v-164h-707z" />
    <glyph glyph-name="igrave" unicode="&#xec;" horiz-adv-x="285" 
d="M234 886h-179l-71 164h179zM43 0v840h199v-840h-199z" />
    <glyph glyph-name="iacute" unicode="&#xed;" horiz-adv-x="285" 
d="M53 886l71 164h179l-71 -164h-179zM43 0v840h199v-840h-199z" />
    <glyph glyph-name="icircumflex" unicode="&#xee;" horiz-adv-x="285" 
d="M-117 886l137 164h245l137 -164h-176l-59 65h-49l-59 -65h-176zM43 0v840h199v-840h-199z" />
    <glyph glyph-name="idieresis" unicode="&#xef;" horiz-adv-x="285" 
d="M6 900q-34 0 -58.5 23t-24.5 56q0 34 24.5 57t58.5 23t58.5 -23t24.5 -57q0 -33 -24.5 -56t-58.5 -23zM279 900q-34 0 -58.5 23t-24.5 56q0 34 24.5 57t58.5 23t58.5 -23t24.5 -57q0 -33 -24.5 -56t-58.5 -23zM43 0v840h199v-840h-199z" />
    <glyph glyph-name="eth" unicode="&#xf0;" horiz-adv-x="965" 
d="M483 840q119 0 207.5 -31.5t140.5 -89.5t77 -132.5t25 -166.5t-25 -166.5t-77 -132.5t-140.5 -89.5t-207.5 -31.5h-386v346h-92v149h92v345h386zM482 168q123 0 187 65t64 187t-64 187t-187 65h-184v-177h138v-149h-139v-178h185z" />
    <glyph glyph-name="ntilde" unicode="&#xf1;" horiz-adv-x="920" 
d="M547 892q-43 0 -100 33.5t-86 33.5q-53 0 -59 -47h-67q-7 73 33.5 110.5t103.5 37.5q44 0 101.5 -33.5t85.5 -33.5q52 0 59 47h66q7 -73 -33 -110.5t-104 -37.5zM43 0v840h231l390 -565h19v565h195v-840h-227l-395 565h-18v-565h-195z" />
    <glyph glyph-name="ograve" unicode="&#xf2;" horiz-adv-x="979" 
d="M581 890h-179l-71 164h179zM489 -28q-205 0 -333 125t-128 323t128 323t333 125q206 0 334 -125t128 -323t-128 -323t-334 -125zM489 145q114 0 189 76.5t75 198.5t-75 198.5t-189 76.5q-113 0 -188.5 -76.5t-75.5 -198.5t75.5 -198.5t188.5 -76.5z" />
    <glyph glyph-name="oacute" unicode="&#xf3;" horiz-adv-x="979" 
d="M400 890l71 164h179l-71 -164h-179zM489 -28q-205 0 -333 125t-128 323t128 323t333 125q206 0 334 -125t128 -323t-128 -323t-334 -125zM489 145q114 0 189 76.5t75 198.5t-75 198.5t-189 76.5q-113 0 -188.5 -76.5t-75.5 -198.5t75.5 -198.5t188.5 -76.5z" />
    <glyph glyph-name="ocircumflex" unicode="&#xf4;" horiz-adv-x="979" 
d="M230 890l137 164h245l137 -164h-176l-59 65h-49l-59 -65h-176zM489 -28q-205 0 -333 125t-128 323t128 323t333 125q206 0 334 -125t128 -323t-128 -323t-334 -125zM489 145q114 0 189 76.5t75 198.5t-75 198.5t-189 76.5q-113 0 -188.5 -76.5t-75.5 -198.5t75.5 -198.5
t188.5 -76.5z" />
    <glyph glyph-name="otilde" unicode="&#xf5;" horiz-adv-x="979" 
d="M576 896q-44 0 -101 33.5t-85 33.5q-53 0 -59 -47h-67q-7 73 33.5 110.5t103.5 37.5q44 0 101.5 -33.5t85.5 -33.5q52 0 59 47h66q7 -73 -33 -110.5t-104 -37.5zM489 -28q-205 0 -333 125t-128 323t128 323t333 125q206 0 334 -125t128 -323t-128 -323t-334 -125z
M489 145q114 0 189 76.5t75 198.5t-75 198.5t-189 76.5q-113 0 -188.5 -76.5t-75.5 -198.5t75.5 -198.5t188.5 -76.5z" />
    <glyph glyph-name="odieresis" unicode="&#xf6;" horiz-adv-x="979" 
d="M353 904q-34 0 -58.5 23t-24.5 56q0 34 24.5 57t58.5 23t58.5 -23t24.5 -57q0 -33 -24.5 -56t-58.5 -23zM626 904q-34 0 -58.5 23t-24.5 56q0 34 24.5 57t58.5 23t58.5 -23t24.5 -57q0 -33 -24.5 -56t-58.5 -23zM489 -28q-205 0 -333 125t-128 323t128 323t333 125
q206 0 334 -125t128 -323t-128 -323t-334 -125zM489 145q114 0 189 76.5t75 198.5t-75 198.5t-189 76.5q-113 0 -188.5 -76.5t-75.5 -198.5t75.5 -198.5t188.5 -76.5z" />
    <glyph glyph-name="divide" unicode="&#xf7;" horiz-adv-x="662" 
d="M331 566q-40 0 -68 27.5t-28 66.5q0 38 28 66t68 28q39 0 67 -28t28 -66q0 -39 -28 -66.5t-67 -27.5zM50 349v142h562v-142h-562zM331 85q-40 0 -68 28t-28 67q0 38 28 66t68 28q39 0 67 -28t28 -66q0 -39 -28 -67t-67 -28z" />
    <glyph glyph-name="oslash" unicode="&#xf8;" horiz-adv-x="979" 
d="M731 810q104 -56 162 -157.5t58 -232.5q0 -198 -128 -323t-334 -125q-71 0 -137 17l-18 -40h-131l39 84q-101 57 -157.5 158t-56.5 229q0 198 128 323t333 125q69 0 131 -15l18 39h131zM225 420q0 -138 95 -217l225 487q-30 5 -56 5q-113 0 -188.5 -76.5t-75.5 -198.5z
M489 145q114 0 189 76.5t75 198.5q0 144 -100 221l-226 -489q28 -7 62 -7z" />
    <glyph glyph-name="ugrave" unicode="&#xf9;" horiz-adv-x="895" 
d="M539 886h-179l-71 164h179zM448 -28q-197 0 -301 94.5t-104 283.5v490h201v-485q0 -102 51.5 -158.5t152.5 -56.5t153 56.5t52 158.5v485h200v-490q0 -189 -104 -283.5t-301 -94.5z" />
    <glyph glyph-name="uacute" unicode="&#xfa;" horiz-adv-x="895" 
d="M358 886l71 164h179l-71 -164h-179zM448 -28q-197 0 -301 94.5t-104 283.5v490h201v-485q0 -102 51.5 -158.5t152.5 -56.5t153 56.5t52 158.5v485h200v-490q0 -189 -104 -283.5t-301 -94.5z" />
    <glyph glyph-name="ucircumflex" unicode="&#xfb;" horiz-adv-x="895" 
d="M188 886l137 164h245l137 -164h-176l-59 65h-49l-59 -65h-176zM448 -28q-197 0 -301 94.5t-104 283.5v490h201v-485q0 -102 51.5 -158.5t152.5 -56.5t153 56.5t52 158.5v485h200v-490q0 -189 -104 -283.5t-301 -94.5z" />
    <glyph glyph-name="udieresis" unicode="&#xfc;" horiz-adv-x="895" 
d="M311 900q-34 0 -58.5 23t-24.5 56q0 34 24.5 57t58.5 23t58.5 -23t24.5 -57q0 -33 -24.5 -56t-58.5 -23zM584 900q-34 0 -58.5 23t-24.5 56q0 34 24.5 57t58.5 23t58.5 -23t24.5 -57q0 -33 -24.5 -56t-58.5 -23zM448 -28q-197 0 -301 94.5t-104 283.5v490h201v-485
q0 -102 51.5 -158.5t152.5 -56.5t153 56.5t52 158.5v485h200v-490q0 -189 -104 -283.5t-301 -94.5z" />
    <glyph glyph-name="yacute" unicode="&#xfd;" horiz-adv-x="909" 
d="M615 1050l-71 -164h-179l71 164h179zM901 840l-347 -571v-269h-200v270l-346 570h212l224 -376h21l224 376h212z" />
    <glyph glyph-name="thorn" unicode="&#xfe;" horiz-adv-x="839" 
d="M440 725q178 0 272.5 -78t94.5 -227t-94.5 -227t-272.5 -78h-198v-115h-199v840h199v-115h198zM445 282q77 0 119.5 34.5t42.5 103.5t-42.5 103.5t-118.5 34.5h-204v-276h203z" />
    <glyph glyph-name="ydieresis" unicode="&#xff;" horiz-adv-x="909" 
d="M318 900q-34 0 -58.5 23t-24.5 56q0 34 24.5 57t58.5 23t58.5 -23t24.5 -57q0 -33 -24.5 -56t-58.5 -23zM591 900q-34 0 -58.5 23t-24.5 56q0 34 24.5 57t58.5 23t58.5 -23t24.5 -57q0 -33 -24.5 -56t-58.5 -23zM901 840l-347 -571v-269h-200v270l-346 570h212l224 -376
h21l224 376h212z" />
    <glyph glyph-name="Amacron" unicode="&#x100;" 
d="M678 1063v-148h-400v148h400zM737 0l-52 141h-414l-52 -141h-206l325 840h280l326 -840h-207zM327 292h302l-132 359h-38z" />
    <glyph glyph-name="amacron" unicode="&#x101;" 
d="M678 1063v-148h-400v148h400zM737 0l-52 141h-414l-52 -141h-206l325 840h280l326 -840h-207zM327 292h302l-132 359h-38z" />
    <glyph glyph-name="Abreve" unicode="&#x102;" 
d="M479 890q-102 0 -155 39.5t-52 120.5h122q2 -70 85 -70q40 0 61.5 18.5t22.5 51.5h122q1 -81 -52 -120.5t-154 -39.5zM737 0l-52 141h-414l-52 -141h-206l325 840h280l326 -840h-207zM327 292h302l-132 359h-38z" />
    <glyph glyph-name="abreve" unicode="&#x103;" 
d="M479 890q-102 0 -155 39.5t-52 120.5h122q2 -70 85 -70q40 0 61.5 18.5t22.5 51.5h122q1 -81 -52 -120.5t-154 -39.5zM737 0l-52 141h-414l-52 -141h-206l325 840h280l326 -840h-207zM327 292h302l-132 359h-38z" />
    <glyph glyph-name="Aogonek" unicode="&#x104;" 
d="M737 0q-50 0 -75 -19.5t-25 -47.5q0 -25 20.5 -42t58.5 -17v-115q-35 0 -68 6.5t-67 21.5t-54.5 45t-20.5 72q0 43 20.5 74t55 47t66.5 23.5t67 9.5l-30 83h-414l-52 -141h-206l325 840h280l326 -840h-207zM327 292h302l-132 359h-38z" />
    <glyph glyph-name="aogonek" unicode="&#x105;" 
d="M737 0q-50 0 -75 -19.5t-25 -47.5q0 -25 20.5 -42t58.5 -17v-115q-35 0 -68 6.5t-67 21.5t-54.5 45t-20.5 72q0 43 20.5 74t55 47t66.5 23.5t67 9.5l-30 83h-414l-52 -141h-206l325 840h280l326 -840h-207zM327 292h302l-132 359h-38z" />
    <glyph glyph-name="Cacute" unicode="&#x106;" horiz-adv-x="930" 
d="M399 886l71 164h179l-71 -164h-179zM488 -28q-204 0 -332 125t-128 323t128 323t332 125q73 0 137.5 -17.5t122.5 -54t98.5 -102.5t55.5 -155h-191q-52 156 -223 156q-113 0 -188 -77.5t-75 -197.5t75 -197.5t188 -77.5q171 0 223 157h191q-12 -72 -41 -129t-68.5 -94.5
t-90.5 -61.5t-103.5 -34.5t-110.5 -10.5z" />
    <glyph glyph-name="cacute" unicode="&#x107;" horiz-adv-x="930" 
d="M399 886l71 164h179l-71 -164h-179zM488 -28q-204 0 -332 125t-128 323t128 323t332 125q73 0 137.5 -17.5t122.5 -54t98.5 -102.5t55.5 -155h-191q-52 156 -223 156q-113 0 -188 -77.5t-75 -197.5t75 -197.5t188 -77.5q171 0 223 157h191q-12 -72 -41 -129t-68.5 -94.5
t-90.5 -61.5t-103.5 -34.5t-110.5 -10.5z" />
    <glyph glyph-name="Cdotaccent" unicode="&#x10a;" horiz-adv-x="930" 
d="M489 900q-34 0 -58.5 23t-24.5 56q0 34 24.5 57t58.5 23t58.5 -23t24.5 -57q0 -33 -24.5 -56t-58.5 -23zM488 -28q-204 0 -332 125t-128 323t128 323t332 125q73 0 137.5 -17.5t122.5 -54t98.5 -102.5t55.5 -155h-191q-52 156 -223 156q-113 0 -188 -77.5t-75 -197.5
t75 -197.5t188 -77.5q171 0 223 157h191q-12 -72 -41 -129t-68.5 -94.5t-90.5 -61.5t-103.5 -34.5t-110.5 -10.5z" />
    <glyph glyph-name="cdotaccent" unicode="&#x10b;" horiz-adv-x="930" 
d="M489 900q-34 0 -58.5 23t-24.5 56q0 34 24.5 57t58.5 23t58.5 -23t24.5 -57q0 -33 -24.5 -56t-58.5 -23zM488 -28q-204 0 -332 125t-128 323t128 323t332 125q73 0 137.5 -17.5t122.5 -54t98.5 -102.5t55.5 -155h-191q-52 156 -223 156q-113 0 -188 -77.5t-75 -197.5
t75 -197.5t188 -77.5q171 0 223 157h191q-12 -72 -41 -129t-68.5 -94.5t-90.5 -61.5t-103.5 -34.5t-110.5 -10.5z" />
    <glyph glyph-name="Ccaron" unicode="&#x10c;" horiz-adv-x="930" 
d="M230 1050h176l59 -65h49l59 65h176l-137 -164h-245zM488 -28q-204 0 -332 125t-128 323t128 323t332 125q73 0 137.5 -17.5t122.5 -54t98.5 -102.5t55.5 -155h-191q-52 156 -223 156q-113 0 -188 -77.5t-75 -197.5t75 -197.5t188 -77.5q171 0 223 157h191
q-12 -72 -41 -129t-68.5 -94.5t-90.5 -61.5t-103.5 -34.5t-110.5 -10.5z" />
    <glyph glyph-name="ccaron" unicode="&#x10d;" horiz-adv-x="930" 
d="M230 1050h176l59 -65h49l59 65h176l-137 -164h-245zM488 -28q-204 0 -332 125t-128 323t128 323t332 125q73 0 137.5 -17.5t122.5 -54t98.5 -102.5t55.5 -155h-191q-52 156 -223 156q-113 0 -188 -77.5t-75 -197.5t75 -197.5t188 -77.5q171 0 223 157h191
q-12 -72 -41 -129t-68.5 -94.5t-90.5 -61.5t-103.5 -34.5t-110.5 -10.5z" />
    <glyph glyph-name="Dcaron" unicode="&#x10e;" horiz-adv-x="911" 
d="M561 886h-245l-137 164h176l59 -65h49l59 65h176zM429 840q119 0 207.5 -31.5t140.5 -89.5t77 -132.5t25 -166.5t-25 -166.5t-77 -132.5t-140.5 -89.5t-207.5 -31.5h-386v840h386zM428 168q122 0 186.5 65t64.5 187t-64.5 187t-186.5 65h-184l-2 -504h186z" />
    <glyph glyph-name="dcaron" unicode="&#x10f;" horiz-adv-x="911" 
d="M561 886h-245l-137 164h176l59 -65h49l59 65h176zM429 840q119 0 207.5 -31.5t140.5 -89.5t77 -132.5t25 -166.5t-25 -166.5t-77 -132.5t-140.5 -89.5t-207.5 -31.5h-386v840h386zM428 168q122 0 186.5 65t64.5 187t-64.5 187t-186.5 65h-184l-2 -504h186z" />
    <glyph glyph-name="Dcroat" unicode="&#x110;" horiz-adv-x="965" 
d="M483 840q119 0 207.5 -31.5t140.5 -89.5t77 -132.5t25 -166.5t-25 -166.5t-77 -132.5t-140.5 -89.5t-207.5 -31.5h-386v346h-92v149h92v345h386zM482 168q123 0 187 65t64 187t-64 187t-187 65h-184v-177h138v-149h-139v-178h185z" />
    <glyph glyph-name="dcroat" unicode="&#x111;" horiz-adv-x="965" 
d="M483 840q119 0 207.5 -31.5t140.5 -89.5t77 -132.5t25 -166.5t-25 -166.5t-77 -132.5t-140.5 -89.5t-207.5 -31.5h-386v346h-92v149h92v345h386zM482 168q123 0 187 65t64 187t-64 187t-187 65h-184v-177h138v-149h-139v-178h185z" />
    <glyph glyph-name="Emacron" unicode="&#x112;" horiz-adv-x="793" 
d="M191 915v148h400v-148h-400zM43 0v840h707v-163h-508v-184h490v-144h-490v-185h508v-164h-707z" />
    <glyph glyph-name="emacron" unicode="&#x113;" horiz-adv-x="793" 
d="M191 915v148h400v-148h-400zM43 0v840h707v-163h-508v-184h490v-144h-490v-185h508v-164h-707z" />
    <glyph glyph-name="Edotaccent" unicode="&#x116;" horiz-adv-x="793" 
d="M391 900q-34 0 -58.5 23t-24.5 56q0 34 24.5 57t58.5 23t58.5 -23t24.5 -57q0 -33 -24.5 -56t-58.5 -23zM43 0v840h707v-163h-508v-184h490v-144h-490v-185h508v-164h-707z" />
    <glyph glyph-name="edotaccent" unicode="&#x117;" horiz-adv-x="793" 
d="M391 900q-34 0 -58.5 23t-24.5 56q0 34 24.5 57t58.5 23t58.5 -23t24.5 -57q0 -33 -24.5 -56t-58.5 -23zM43 0v840h707v-163h-508v-184h490v-144h-490v-185h508v-164h-707z" />
    <glyph glyph-name="Eogonek" unicode="&#x118;" horiz-adv-x="793" 
d="M750 677h-508v-184h490v-144h-490v-185h508v-164q-50 0 -75 -19.5t-25 -47.5q0 -25 20.5 -42t58.5 -17v-115q-35 0 -68 6.5t-67 21.5t-54.5 45t-20.5 72q0 58 40 96h-516v840h707v-163z" />
    <glyph glyph-name="eogonek" unicode="&#x119;" horiz-adv-x="793" 
d="M750 677h-508v-184h490v-144h-490v-185h508v-164q-50 0 -75 -19.5t-25 -47.5q0 -25 20.5 -42t58.5 -17v-115q-35 0 -68 6.5t-67 21.5t-54.5 45t-20.5 72q0 58 40 96h-516v840h707v-163z" />
    <glyph glyph-name="Ecaron" unicode="&#x11a;" horiz-adv-x="793" 
d="M132 1050h176l59 -65h49l59 65h176l-137 -164h-245zM43 0v840h707v-163h-508v-184h490v-144h-490v-185h508v-164h-707z" />
    <glyph glyph-name="ecaron" unicode="&#x11b;" horiz-adv-x="793" 
d="M132 1050h176l59 -65h49l59 65h176l-137 -164h-245zM43 0v840h707v-163h-508v-184h490v-144h-490v-185h508v-164h-707z" />
    <glyph glyph-name="Gbreve" unicode="&#x11e;" horiz-adv-x="963" 
d="M486 890q-102 0 -155 39.5t-52 120.5h122q2 -70 85 -70q40 0 61.5 18.5t22.5 51.5h122q1 -81 -52 -120.5t-154 -39.5zM470 -28q-190 0 -316 126t-126 322q0 198 128.5 323t335.5 125q96 0 178 -29t146.5 -97.5t86.5 -169.5h-199q-25 57 -80.5 90t-128.5 33
q-119 0 -194.5 -77t-75.5 -198q0 -120 76 -198t192 -78q81 0 145 41t83 124h-244v135h439v-444h-125l-2 136q-46 -74 -126 -119t-193 -45z" />
    <glyph glyph-name="gbreve" unicode="&#x11f;" horiz-adv-x="963" 
d="M486 890q-102 0 -155 39.5t-52 120.5h122q2 -70 85 -70q40 0 61.5 18.5t22.5 51.5h122q1 -81 -52 -120.5t-154 -39.5zM470 -28q-190 0 -316 126t-126 322q0 198 128.5 323t335.5 125q96 0 178 -29t146.5 -97.5t86.5 -169.5h-199q-25 57 -80.5 90t-128.5 33
q-119 0 -194.5 -77t-75.5 -198q0 -120 76 -198t192 -78q81 0 145 41t83 124h-244v135h439v-444h-125l-2 136q-46 -74 -126 -119t-193 -45z" />
    <glyph glyph-name="Gdotaccent" unicode="&#x120;" horiz-adv-x="963" 
d="M486 900q-34 0 -58.5 23t-24.5 56q0 34 24.5 57t58.5 23t58.5 -23t24.5 -57q0 -33 -24.5 -56t-58.5 -23zM470 -28q-190 0 -316 126t-126 322q0 198 128.5 323t335.5 125q96 0 178 -29t146.5 -97.5t86.5 -169.5h-199q-25 57 -80.5 90t-128.5 33q-119 0 -194.5 -77
t-75.5 -198q0 -120 76 -198t192 -78q81 0 145 41t83 124h-244v135h439v-444h-125l-2 136q-46 -74 -126 -119t-193 -45z" />
    <glyph glyph-name="gdotaccent" unicode="&#x121;" horiz-adv-x="963" 
d="M486 900q-34 0 -58.5 23t-24.5 56q0 34 24.5 57t58.5 23t58.5 -23t24.5 -57q0 -33 -24.5 -56t-58.5 -23zM470 -28q-190 0 -316 126t-126 322q0 198 128.5 323t335.5 125q96 0 178 -29t146.5 -97.5t86.5 -169.5h-199q-25 57 -80.5 90t-128.5 33q-119 0 -194.5 -77
t-75.5 -198q0 -120 76 -198t192 -78q81 0 145 41t83 124h-244v135h439v-444h-125l-2 136q-46 -74 -126 -119t-193 -45z" />
    <glyph glyph-name="uni0122" unicode="&#x122;" horiz-adv-x="963" 
d="M470 -28q-190 0 -316 126t-126 322q0 198 128.5 323t335.5 125q96 0 178 -29t146.5 -97.5t86.5 -169.5h-199q-25 57 -80.5 90t-128.5 33q-119 0 -194.5 -77t-75.5 -198q0 -120 76 -198t192 -78q81 0 145 41t83 124h-244v135h439v-444h-125l-2 136q-46 -74 -126 -119
t-193 -45zM443 -419q17 88 15 206h-84v150h227v-35q0 -223 -46 -321h-112z" />
    <glyph glyph-name="uni0123" unicode="&#x123;" horiz-adv-x="963" 
d="M470 -28q-190 0 -316 126t-126 322q0 198 128.5 323t335.5 125q96 0 178 -29t146.5 -97.5t86.5 -169.5h-199q-25 57 -80.5 90t-128.5 33q-119 0 -194.5 -77t-75.5 -198q0 -120 76 -198t192 -78q81 0 145 41t83 124h-244v135h439v-444h-125l-2 136q-46 -74 -126 -119
t-193 -45zM443 -419q17 88 15 206h-84v150h227v-35q0 -223 -46 -321h-112z" />
    <glyph glyph-name="Hbar" unicode="&#x126;" horiz-adv-x="901" 
d="M659 840h200v-840h-200v337h-417v-337h-199v840h199v-111h417v111zM242 503h417v84h-417v-84z" />
    <glyph glyph-name="hbar" unicode="&#x127;" horiz-adv-x="901" 
d="M659 840h200v-840h-200v337h-417v-337h-199v840h199v-111h417v111zM242 503h417v84h-417v-84z" />
    <glyph glyph-name="Imacron" unicode="&#x12a;" horiz-adv-x="285" 
d="M-58 915v148h400v-148h-400zM43 0v840h199v-840h-199z" />
    <glyph glyph-name="imacron" unicode="&#x12b;" horiz-adv-x="285" 
d="M-58 915v148h400v-148h-400zM43 0v840h199v-840h-199z" />
    <glyph glyph-name="Iogonek" unicode="&#x12e;" horiz-adv-x="285" 
d="M43 840h199v-840q-50 0 -75 -19.5t-25 -47.5q0 -25 20.5 -42t58.5 -17v-115q-35 0 -68 6.5t-67 21.5t-54.5 45t-20.5 72q0 58 40 96h-8v840z" />
    <glyph glyph-name="iogonek" unicode="&#x12f;" horiz-adv-x="285" 
d="M43 840h199v-840q-50 0 -75 -19.5t-25 -47.5q0 -25 20.5 -42t58.5 -17v-115q-35 0 -68 6.5t-67 21.5t-54.5 45t-20.5 72q0 58 40 96h-8v840z" />
    <glyph glyph-name="Idotaccent" unicode="&#x130;" horiz-adv-x="285" 
d="M142 900q-34 0 -58.5 23t-24.5 56q0 34 24.5 57t58.5 23t58.5 -23t24.5 -57q0 -33 -24.5 -56t-58.5 -23zM43 0v840h199v-840h-199z" />
    <glyph glyph-name="dotlessi" unicode="&#x131;" horiz-adv-x="285" 
d="M43 0v840h199v-840h-199z" />
    <glyph glyph-name="IJ" unicode="&#x132;" horiz-adv-x="1053" 
d="M43 0v840h199v-840h-199zM652 -28q-351 0 -347 334h198q1 -85 43 -124t110 -39q154 0 154 189v508h200v-499q0 -196 -91.5 -282.5t-266.5 -86.5z" />
    <glyph glyph-name="uni0136" unicode="&#x136;" horiz-adv-x="882" 
d="M514 467l369 -467h-208l-275 346h-14l-145 -150v-196h-198v840h198v-403h15l382 403h226zM339 -213v150h227v-35q0 -223 -46 -321h-112q17 88 15 206h-84z" />
    <glyph glyph-name="uni0137" unicode="&#x137;" horiz-adv-x="882" 
d="M514 467l369 -467h-208l-275 346h-14l-145 -150v-196h-198v840h198v-403h15l382 403h226zM339 -213v150h227v-35q0 -223 -46 -321h-112q17 88 15 206h-84z" />
    <glyph glyph-name="Lacute" unicode="&#x139;" horiz-adv-x="761" 
d="M43 876l70 164h179l-70 -164h-179zM43 0v840h199v-673h484v-167h-683z" />
    <glyph glyph-name="lacute" unicode="&#x13a;" horiz-adv-x="761" 
d="M43 876l70 164h179l-70 -164h-179zM43 0v840h199v-673h484v-167h-683z" />
    <glyph glyph-name="uni013B" unicode="&#x13b;" horiz-adv-x="761" 
d="M43 0v840h199v-673h484v-167h-683zM338 -419q17 88 15 206h-84v150h227v-35q0 -223 -46 -321h-112z" />
    <glyph glyph-name="uni013C" unicode="&#x13c;" horiz-adv-x="761" 
d="M43 0v840h199v-673h484v-167h-683zM338 -419q17 88 15 206h-84v150h227v-35q0 -223 -46 -321h-112z" />
    <glyph glyph-name="Lcaron" unicode="&#x13d;" horiz-adv-x="761" 
d="M43 0v840h199v-673h484v-167h-683zM418 442q18 104 16 231h-94v167h254v-40q0 -124 -15 -218t-36 -140h-125z" />
    <glyph glyph-name="lcaron" unicode="&#x13e;" horiz-adv-x="761" 
d="M43 0v840h199v-673h484v-167h-683zM418 442q18 104 16 231h-94v167h254v-40q0 -124 -15 -218t-36 -140h-125z" />
    <glyph glyph-name="Ldot" unicode="&#x13f;" horiz-adv-x="761" 
d="M43 0v840h199v-673h484v-167h-683zM490 421q-44 0 -75.5 31t-31.5 75q0 43 31.5 74t75.5 31q43 0 74.5 -31t31.5 -74t-31 -74.5t-75 -31.5z" />
    <glyph glyph-name="Lslash" unicode="&#x141;" horiz-adv-x="788" 
d="M269 167h484v-167h-683v246l-70 -56v154l70 56v440h199v-282l153 122v-154l-153 -122v-237z" />
    <glyph glyph-name="lslash" unicode="&#x142;" horiz-adv-x="788" 
d="M269 167h484v-167h-683v246l-70 -56v154l70 56v440h199v-282l153 122v-154l-153 -122v-237z" />
    <glyph glyph-name="Nacute" unicode="&#x143;" horiz-adv-x="920" 
d="M371 886l71 164h179l-71 -164h-179zM43 0v840h231l390 -565h19v565h195v-840h-227l-395 565h-18v-565h-195z" />
    <glyph glyph-name="nacute" unicode="&#x144;" horiz-adv-x="920" 
d="M371 886l71 164h179l-71 -164h-179zM43 0v840h231l390 -565h19v565h195v-840h-227l-395 565h-18v-565h-195z" />
    <glyph glyph-name="uni0145" unicode="&#x145;" horiz-adv-x="920" 
d="M43 0v840h231l390 -565h19v565h195v-840h-227l-395 565h-18v-565h-195zM418 -419q17 88 15 206h-84v150h227v-35q0 -223 -46 -321h-112z" />
    <glyph glyph-name="uni0146" unicode="&#x146;" horiz-adv-x="920" 
d="M43 0v840h231l390 -565h19v565h195v-840h-227l-395 565h-18v-565h-195zM418 -419q17 88 15 206h-84v150h227v-35q0 -223 -46 -321h-112z" />
    <glyph glyph-name="Ncaron" unicode="&#x147;" horiz-adv-x="920" 
d="M201 1050h176l59 -65h49l59 65h176l-137 -164h-245zM43 0v840h231l390 -565h19v565h195v-840h-227l-395 565h-18v-565h-195z" />
    <glyph glyph-name="ncaron" unicode="&#x148;" horiz-adv-x="920" 
d="M201 1050h176l59 -65h49l59 65h176l-137 -164h-245zM43 0v840h231l390 -565h19v565h195v-840h-227l-395 565h-18v-565h-195z" />
    <glyph glyph-name="Eng" unicode="&#x14a;" horiz-adv-x="920" 
d="M683 840h195v-840q0 -151 -92 -224t-260 -73l2 168q155 0 155 128v1h-32l-395 565h-18v-565h-195v840h231l390 -565h19v565z" />
    <glyph glyph-name="eng" unicode="&#x14b;" horiz-adv-x="920" 
d="M683 840h195v-840q0 -151 -92 -224t-260 -73l2 168q155 0 155 128v1h-32l-395 565h-18v-565h-195v840h231l390 -565h19v565z" />
    <glyph glyph-name="Omacron" unicode="&#x14c;" horiz-adv-x="979" 
d="M289 919v148h400v-148h-400zM489 -28q-205 0 -333 125t-128 323t128 323t333 125q206 0 334 -125t128 -323t-128 -323t-334 -125zM489 145q114 0 189 76.5t75 198.5t-75 198.5t-189 76.5q-113 0 -188.5 -76.5t-75.5 -198.5t75.5 -198.5t188.5 -76.5z" />
    <glyph glyph-name="omacron" unicode="&#x14d;" horiz-adv-x="979" 
d="M289 919v148h400v-148h-400zM489 -28q-205 0 -333 125t-128 323t128 323t333 125q206 0 334 -125t128 -323t-128 -323t-334 -125zM489 145q114 0 189 76.5t75 198.5t-75 198.5t-189 76.5q-113 0 -188.5 -76.5t-75.5 -198.5t75.5 -198.5t188.5 -76.5z" />
    <glyph glyph-name="Ohungarumlaut" unicode="&#x150;" horiz-adv-x="979" 
d="M252 896l71 164h179l-71 -164h-179zM496 896l71 164h179l-71 -164h-179zM489 -28q-205 0 -333 125t-128 323t128 323t333 125q206 0 334 -125t128 -323t-128 -323t-334 -125zM489 145q114 0 189 76.5t75 198.5t-75 198.5t-189 76.5q-113 0 -188.5 -76.5t-75.5 -198.5
t75.5 -198.5t188.5 -76.5z" />
    <glyph glyph-name="ohungarumlaut" unicode="&#x151;" horiz-adv-x="979" 
d="M252 896l71 164h179l-71 -164h-179zM496 896l71 164h179l-71 -164h-179zM489 -28q-205 0 -333 125t-128 323t128 323t333 125q206 0 334 -125t128 -323t-128 -323t-334 -125zM489 145q114 0 189 76.5t75 198.5t-75 198.5t-189 76.5q-113 0 -188.5 -76.5t-75.5 -198.5
t75.5 -198.5t188.5 -76.5z" />
    <glyph glyph-name="OE" unicode="&#x152;" horiz-adv-x="1503" 
d="M1461 677h-508v-184h490v-144h-490v-185h508v-164h-708v42q-114 -70 -264 -70q-205 0 -333 125t-128 323t128 323t333 125q150 0 264 -70v42h708v-163zM489 145q114 0 189 76.5t75 198.5t-75 198.5t-189 76.5q-113 0 -188.5 -76.5t-75.5 -198.5t75.5 -198.5t188.5 -76.5z
" />
    <glyph glyph-name="oe" unicode="&#x153;" horiz-adv-x="1503" 
d="M1461 677h-508v-184h490v-144h-490v-185h508v-164h-708v42q-114 -70 -264 -70q-205 0 -333 125t-128 323t128 323t333 125q150 0 264 -70v42h708v-163zM489 145q114 0 189 76.5t75 198.5t-75 198.5t-189 76.5q-113 0 -188.5 -76.5t-75.5 -198.5t75.5 -198.5t188.5 -76.5z
" />
    <glyph glyph-name="Racute" unicode="&#x154;" horiz-adv-x="873" 
d="M589 1050l-71 -164h-179l71 164h179zM849 0h-198l-138 250h-271v-250h-199v840h441q169 0 256.5 -77t87.5 -224q0 -85 -38 -149t-105 -100zM242 673v-270h231q76 0 116.5 34.5t40.5 100.5t-40.5 100.5t-116.5 34.5h-231z" />
    <glyph glyph-name="racute" unicode="&#x155;" horiz-adv-x="873" 
d="M589 1050l-71 -164h-179l71 164h179zM849 0h-198l-138 250h-271v-250h-199v840h441q169 0 256.5 -77t87.5 -224q0 -85 -38 -149t-105 -100zM242 673v-270h231q76 0 116.5 34.5t40.5 100.5t-40.5 100.5t-116.5 34.5h-231z" />
    <glyph glyph-name="uni0156" unicode="&#x156;" horiz-adv-x="873" 
d="M685 290l164 -290h-198l-138 250h-271v-250h-199v840h441q169 0 256.5 -77t87.5 -224q0 -85 -38 -149t-105 -100zM242 673v-270h231q76 0 116.5 34.5t40.5 100.5t-40.5 100.5t-116.5 34.5h-231zM317 -213v150h227v-35q0 -223 -46 -321h-112q17 88 15 206h-84z" />
    <glyph glyph-name="uni0157" unicode="&#x157;" horiz-adv-x="873" 
d="M685 290l164 -290h-198l-138 250h-271v-250h-199v840h441q169 0 256.5 -77t87.5 -224q0 -85 -38 -149t-105 -100zM242 673v-270h231q76 0 116.5 34.5t40.5 100.5t-40.5 100.5t-116.5 34.5h-231zM317 -213v150h227v-35q0 -223 -46 -321h-112q17 88 15 206h-84z" />
    <glyph glyph-name="Rcaron" unicode="&#x158;" horiz-adv-x="873" 
d="M551 886h-245l-137 164h176l59 -65h49l59 65h176zM849 0h-198l-138 250h-271v-250h-199v840h441q169 0 256.5 -77t87.5 -224q0 -85 -38 -149t-105 -100zM242 673v-270h231q76 0 116.5 34.5t40.5 100.5t-40.5 100.5t-116.5 34.5h-231z" />
    <glyph glyph-name="rcaron" unicode="&#x159;" horiz-adv-x="873" 
d="M551 886h-245l-137 164h176l59 -65h49l59 65h176zM849 0h-198l-138 250h-271v-250h-199v840h441q169 0 256.5 -77t87.5 -224q0 -85 -38 -149t-105 -100zM242 673v-270h231q76 0 116.5 34.5t40.5 100.5t-40.5 100.5t-116.5 34.5h-231z" />
    <glyph glyph-name="Sacute" unicode="&#x15a;" horiz-adv-x="837" 
d="M328 886l71 164h179l-71 -164h-179zM413 -28q-194 0 -292.5 71t-97.5 217h180q5 -61 57 -95t153 -35q96 0 148.5 30t52.5 80q0 43 -35 67t-112 37l-104 18q-56 10 -95 19.5t-84.5 29t-73 44.5t-46 66t-18.5 94q0 120 96.5 186.5t272.5 66.5q370 0 373 -285h-179
q-22 127 -198 127q-85 0 -129.5 -27.5t-44.5 -76.5q0 -75 127 -99l91 -16q6 -1 19 -3q152 -28 215 -59q122 -61 123 -195q0 -126 -102 -194t-297 -68z" />
    <glyph glyph-name="sacute" unicode="&#x15b;" horiz-adv-x="837" 
d="M328 886l71 164h179l-71 -164h-179zM413 -28q-194 0 -292.5 71t-97.5 217h180q5 -61 57 -95t153 -35q96 0 148.5 30t52.5 80q0 43 -35 67t-112 37l-104 18q-56 10 -95 19.5t-84.5 29t-73 44.5t-46 66t-18.5 94q0 120 96.5 186.5t272.5 66.5q370 0 373 -285h-179
q-22 127 -198 127q-85 0 -129.5 -27.5t-44.5 -76.5q0 -75 127 -99l91 -16q6 -1 19 -3q152 -28 215 -59q122 -61 123 -195q0 -126 -102 -194t-297 -68z" />
    <glyph glyph-name="Scedilla" unicode="&#x15e;" horiz-adv-x="837" 
d="M812 234q0 -121 -93 -188.5t-272 -72.5l-14 -12q45 -3 77.5 -31.5t32.5 -78.5q0 -72 -68 -101.5t-162 -11.5v87q38 -8 63 -5t36.5 10.5t11.5 18.5q0 12 -11.5 21t-36.5 11.5t-63 -8.5v61l46 39q-168 10 -252.5 80.5t-83.5 206.5h180q5 -61 57 -95t153 -35q96 0 148.5 30
t52.5 80q0 43 -35 67t-112 37l-104 18q-56 10 -95 19.5t-84.5 29t-73 44.5t-46 66t-18.5 94q0 120 96.5 186.5t272.5 66.5q370 0 373 -285h-179q-22 127 -198 127q-85 0 -129.5 -27.5t-44.5 -76.5q0 -75 127 -99l91 -16q6 -1 19 -3q152 -28 215 -59q122 -61 123 -195z" />
    <glyph glyph-name="scedilla" unicode="&#x15f;" horiz-adv-x="837" 
d="M812 234q0 -121 -93 -188.5t-272 -72.5l-14 -12q45 -3 77.5 -31.5t32.5 -78.5q0 -72 -68 -101.5t-162 -11.5v87q38 -8 63 -5t36.5 10.5t11.5 18.5q0 12 -11.5 21t-36.5 11.5t-63 -8.5v61l46 39q-168 10 -252.5 80.5t-83.5 206.5h180q5 -61 57 -95t153 -35q96 0 148.5 30
t52.5 80q0 43 -35 67t-112 37l-104 18q-56 10 -95 19.5t-84.5 29t-73 44.5t-46 66t-18.5 94q0 120 96.5 186.5t272.5 66.5q370 0 373 -285h-179q-22 127 -198 127q-85 0 -129.5 -27.5t-44.5 -76.5q0 -75 127 -99l91 -16q6 -1 19 -3q152 -28 215 -59q122 -61 123 -195z" />
    <glyph glyph-name="Scaron" unicode="&#x160;" horiz-adv-x="837" 
d="M158 1050h176l59 -65h49l59 65h176l-137 -164h-245zM413 -28q-194 0 -292.5 71t-97.5 217h180q5 -61 57 -95t153 -35q96 0 148.5 30t52.5 80q0 43 -35 67t-112 37l-104 18q-56 10 -95 19.5t-84.5 29t-73 44.5t-46 66t-18.5 94q0 120 96.5 186.5t272.5 66.5
q370 0 373 -285h-179q-22 127 -198 127q-85 0 -129.5 -27.5t-44.5 -76.5q0 -75 127 -99l91 -16q6 -1 19 -3q152 -28 215 -59q122 -61 123 -195q0 -126 -102 -194t-297 -68z" />
    <glyph glyph-name="scaron" unicode="&#x161;" horiz-adv-x="837" 
d="M158 1050h176l59 -65h49l59 65h176l-137 -164h-245zM413 -28q-194 0 -292.5 71t-97.5 217h180q5 -61 57 -95t153 -35q96 0 148.5 30t52.5 80q0 43 -35 67t-112 37l-104 18q-56 10 -95 19.5t-84.5 29t-73 44.5t-46 66t-18.5 94q0 120 96.5 186.5t272.5 66.5
q370 0 373 -285h-179q-22 127 -198 127q-85 0 -129.5 -27.5t-44.5 -76.5q0 -75 127 -99l91 -16q6 -1 19 -3q152 -28 215 -59q122 -61 123 -195q0 -126 -102 -194t-297 -68z" />
    <glyph glyph-name="uni0162" unicode="&#x162;" horiz-adv-x="904" 
d="M552 0h-39l-45 -39q45 -3 77.5 -31.5t32.5 -78.5q0 -72 -68 -101.5t-162 -11.5v87q38 -8 63 -5t36.5 10.5t11.5 18.5q0 12 -11.5 21t-36.5 11.5t-63 -8.5v61l77 66h-73v673h-314v167h829v-167h-315v-673z" />
    <glyph glyph-name="uni0163" unicode="&#x163;" horiz-adv-x="904" 
d="M552 0h-39l-45 -39q45 -3 77.5 -31.5t32.5 -78.5q0 -72 -68 -101.5t-162 -11.5v87q38 -8 63 -5t36.5 10.5t11.5 18.5q0 12 -11.5 21t-36.5 11.5t-63 -8.5v61l77 66h-73v673h-314v167h829v-167h-315v-673z" />
    <glyph glyph-name="Tcaron" unicode="&#x164;" horiz-adv-x="904" 
d="M576 886h-245l-137 164h176l59 -65h49l59 65h176zM867 840v-167h-315v-673h-200v673h-314v167h829z" />
    <glyph glyph-name="tcaron" unicode="&#x165;" horiz-adv-x="904" 
d="M576 886h-245l-137 164h176l59 -65h49l59 65h176zM867 840v-167h-315v-673h-200v673h-314v167h829z" />
    <glyph glyph-name="Tbar" unicode="&#x166;" horiz-adv-x="904" 
d="M867 673h-315v-182h211v-149h-211v-342h-200v342h-209v149h209v182h-314v167h829v-167z" />
    <glyph glyph-name="tbar" unicode="&#x167;" horiz-adv-x="904" 
d="M867 673h-315v-182h211v-149h-211v-342h-200v342h-209v149h209v182h-314v167h829v-167z" />
    <glyph glyph-name="Umacron" unicode="&#x16a;" horiz-adv-x="895" 
d="M248 915v148h400v-148h-400zM448 -28q-197 0 -301 94.5t-104 283.5v490h201v-485q0 -102 51.5 -158.5t152.5 -56.5t153 56.5t52 158.5v485h200v-490q0 -189 -104 -283.5t-301 -94.5z" />
    <glyph glyph-name="umacron" unicode="&#x16b;" horiz-adv-x="895" 
d="M248 915v148h400v-148h-400zM448 -28q-197 0 -301 94.5t-104 283.5v490h201v-485q0 -102 51.5 -158.5t152.5 -56.5t153 56.5t52 158.5v485h200v-490q0 -189 -104 -283.5t-301 -94.5z" />
    <glyph glyph-name="Ubreve" unicode="&#x16c;" horiz-adv-x="895" 
d="M448 890q-102 0 -155 39.5t-52 120.5h122q2 -70 85 -70q40 0 61.5 18.5t22.5 51.5h122q1 -81 -52 -120.5t-154 -39.5zM448 -28q-197 0 -301 94.5t-104 283.5v490h201v-485q0 -102 51.5 -158.5t152.5 -56.5t153 56.5t52 158.5v485h200v-490q0 -189 -104 -283.5t-301 -94.5
z" />
    <glyph glyph-name="ubreve" unicode="&#x16d;" horiz-adv-x="895" 
d="M448 890q-102 0 -155 39.5t-52 120.5h122q2 -70 85 -70q40 0 61.5 18.5t22.5 51.5h122q1 -81 -52 -120.5t-154 -39.5zM448 -28q-197 0 -301 94.5t-104 283.5v490h201v-485q0 -102 51.5 -158.5t152.5 -56.5t153 56.5t52 158.5v485h200v-490q0 -189 -104 -283.5t-301 -94.5
z" />
    <glyph glyph-name="Uring" unicode="&#x16e;" horiz-adv-x="895" 
d="M447 808q-53 0 -90 37t-37 89t36.5 89t90.5 37q53 0 89.5 -37t36.5 -89t-36.5 -89t-89.5 -37zM446 900q15 0 25 9.5t10 25.5q0 15 -10 24.5t-25 9.5t-24.5 -9.5t-9.5 -24.5q0 -16 9.5 -25.5t24.5 -9.5zM448 -28q-197 0 -301 94.5t-104 283.5v490h201v-485
q0 -102 51.5 -158.5t152.5 -56.5t153 56.5t52 158.5v485h200v-490q0 -189 -104 -283.5t-301 -94.5z" />
    <glyph glyph-name="uring" unicode="&#x16f;" horiz-adv-x="895" 
d="M447 808q-53 0 -90 37t-37 89t36.5 89t90.5 37q53 0 89.5 -37t36.5 -89t-36.5 -89t-89.5 -37zM446 900q15 0 25 9.5t10 25.5q0 15 -10 24.5t-25 9.5t-24.5 -9.5t-9.5 -24.5q0 -16 9.5 -25.5t24.5 -9.5zM448 -28q-197 0 -301 94.5t-104 283.5v490h201v-485
q0 -102 51.5 -158.5t152.5 -56.5t153 56.5t52 158.5v485h200v-490q0 -189 -104 -283.5t-301 -94.5z" />
    <glyph glyph-name="Uhungarumlaut" unicode="&#x170;" horiz-adv-x="895" 
d="M210 892l71 164h179l-71 -164h-179zM454 892l71 164h179l-71 -164h-179zM448 -28q-197 0 -301 94.5t-104 283.5v490h201v-485q0 -102 51.5 -158.5t152.5 -56.5t153 56.5t52 158.5v485h200v-490q0 -189 -104 -283.5t-301 -94.5z" />
    <glyph glyph-name="uhungarumlaut" unicode="&#x171;" horiz-adv-x="895" 
d="M210 892l71 164h179l-71 -164h-179zM454 892l71 164h179l-71 -164h-179zM448 -28q-197 0 -301 94.5t-104 283.5v490h201v-485q0 -102 51.5 -158.5t152.5 -56.5t153 56.5t52 158.5v485h200v-490q0 -189 -104 -283.5t-301 -94.5z" />
    <glyph glyph-name="Uogonek" unicode="&#x172;" horiz-adv-x="895" 
d="M653 840h200v-490q0 -323 -301 -370v-1q-106 -13 -106 -58q0 -18 17.5 -32.5t54.5 -14.5v-115q-34 0 -68 6.5t-67.5 21t-54 44t-20.5 69.5q0 50 35 80q-300 47 -300 370v490h201v-485q0 -102 51.5 -158.5t152.5 -56.5t153 56.5t52 158.5v485z" />
    <glyph glyph-name="uogonek" unicode="&#x173;" horiz-adv-x="895" 
d="M653 840h200v-490q0 -323 -301 -370v-1q-106 -13 -106 -58q0 -18 17.5 -32.5t54.5 -14.5v-115q-34 0 -68 6.5t-67.5 21t-54 44t-20.5 69.5q0 50 35 80q-300 47 -300 370v490h201v-485q0 -102 51.5 -158.5t152.5 -56.5t153 56.5t52 158.5v485z" />
    <glyph glyph-name="Wcircumflex" unicode="&#x174;" horiz-adv-x="1241" 
d="M362 886l137 164h245l137 -164h-176l-59 65h-49l-59 -65h-176zM212 0l-188 840h201l134 -627h18l160 627h167l161 -627h18l133 627h202l-188 -840h-270l-130 530h-19l-130 -530h-269z" />
    <glyph glyph-name="wcircumflex" unicode="&#x175;" horiz-adv-x="1241" 
d="M362 886l137 164h245l137 -164h-176l-59 65h-49l-59 -65h-176zM212 0l-188 840h201l134 -627h18l160 627h167l161 -627h18l133 627h202l-188 -840h-270l-130 530h-19l-130 -530h-269z" />
    <glyph glyph-name="Ycircumflex" unicode="&#x176;" horiz-adv-x="909" 
d="M430 951l-59 -65h-176l137 164h245l137 -164h-176l-59 65h-49zM901 840l-347 -571v-269h-200v270l-346 570h212l224 -376h21l224 376h212z" />
    <glyph glyph-name="ycircumflex" unicode="&#x177;" horiz-adv-x="909" 
d="M430 951l-59 -65h-176l137 164h245l137 -164h-176l-59 65h-49zM901 840l-347 -571v-269h-200v270l-346 570h212l224 -376h21l224 376h212z" />
    <glyph glyph-name="Ydieresis" unicode="&#x178;" horiz-adv-x="909" 
d="M318 900q-34 0 -58.5 23t-24.5 56q0 34 24.5 57t58.5 23t58.5 -23t24.5 -57q0 -33 -24.5 -56t-58.5 -23zM591 900q-34 0 -58.5 23t-24.5 56q0 34 24.5 57t58.5 23t58.5 -23t24.5 -57q0 -33 -24.5 -56t-58.5 -23zM901 840l-347 -571v-269h-200v270l-346 570h212l224 -376
h21l224 376h212z" />
    <glyph glyph-name="Zacute" unicode="&#x179;" horiz-adv-x="804" 
d="M312 886l71 164h179l-71 -164h-179zM28 0v162l493 495v16h-480v167h735v-162l-497 -495v-16h491v-167h-742z" />
    <glyph glyph-name="zacute" unicode="&#x17a;" horiz-adv-x="804" 
d="M312 886l71 164h179l-71 -164h-179zM28 0v162l493 495v16h-480v167h735v-162l-497 -495v-16h491v-167h-742z" />
    <glyph glyph-name="Zdotaccent" unicode="&#x17b;" horiz-adv-x="804" 
d="M401 900q-34 0 -58.5 23t-24.5 56q0 34 24.5 57t58.5 23t58.5 -23t24.5 -57q0 -33 -24.5 -56t-58.5 -23zM28 0v162l493 495v16h-480v167h735v-162l-497 -495v-16h491v-167h-742z" />
    <glyph glyph-name="zdotaccent" unicode="&#x17c;" horiz-adv-x="804" 
d="M401 900q-34 0 -58.5 23t-24.5 56q0 34 24.5 57t58.5 23t58.5 -23t24.5 -57q0 -33 -24.5 -56t-58.5 -23zM28 0v162l493 495v16h-480v167h735v-162l-497 -495v-16h491v-167h-742z" />
    <glyph glyph-name="Zcaron" unicode="&#x17d;" horiz-adv-x="804" 
d="M143 1050h176l59 -65h49l59 65h176l-137 -164h-245zM28 0v162l493 495v16h-480v167h735v-162l-497 -495v-16h491v-167h-742z" />
    <glyph glyph-name="zcaron" unicode="&#x17e;" horiz-adv-x="804" 
d="M143 1050h176l59 -65h49l59 65h176l-137 -164h-245zM28 0v162l493 495v16h-480v167h735v-162l-497 -495v-16h491v-167h-742z" />
    <glyph glyph-name="florin" unicode="&#x192;" horiz-adv-x="763" 
d="M588 731q-51 0 -82.5 -27.5t-31.5 -89.5v-63h242v-155h-242v-160q0 -67 -20.5 -116.5t-57 -77.5t-80.5 -41t-97 -13q-106 0 -171 39v148q69 -29 127 -29q51 0 82.5 27.5t31.5 89.5v133h-241v155h241v90q0 67 20.5 116.5t57 77.5t80.5 41t97 13q107 0 172 -39v-148
q-65 29 -128 29z" />
    <glyph glyph-name="uni01CD" unicode="&#x1cd;" 
d="M601 886h-245l-137 164h176l59 -65h49l59 65h176zM737 0l-52 141h-414l-52 -141h-206l325 840h280l326 -840h-207zM327 292h302l-132 359h-38z" />
    <glyph glyph-name="uni01CE" unicode="&#x1ce;" 
d="M601 886h-245l-137 164h176l59 -65h49l59 65h176zM737 0l-52 141h-414l-52 -141h-206l325 840h280l326 -840h-207zM327 292h302l-132 359h-38z" />
    <glyph glyph-name="uni01CF" unicode="&#x1cf;" horiz-adv-x="285" 
d="M-117 1050h176l59 -65h49l59 65h176l-137 -164h-245zM43 0v840h199v-840h-199z" />
    <glyph glyph-name="uni01D0" unicode="&#x1d0;" horiz-adv-x="285" 
d="M-117 1050h176l59 -65h49l59 65h176l-137 -164h-245zM43 0v840h199v-840h-199z" />
    <glyph glyph-name="uni01D1" unicode="&#x1d1;" horiz-adv-x="979" 
d="M231 1054h176l59 -65h49l59 65h176l-137 -164h-245zM489 -28q-205 0 -333 125t-128 323t128 323t333 125q206 0 334 -125t128 -323t-128 -323t-334 -125zM489 145q114 0 189 76.5t75 198.5t-75 198.5t-189 76.5q-113 0 -188.5 -76.5t-75.5 -198.5t75.5 -198.5
t188.5 -76.5z" />
    <glyph glyph-name="uni01D2" unicode="&#x1d2;" horiz-adv-x="979" 
d="M231 1054h176l59 -65h49l59 65h176l-137 -164h-245zM489 -28q-205 0 -333 125t-128 323t128 323t333 125q206 0 334 -125t128 -323t-128 -323t-334 -125zM489 145q114 0 189 76.5t75 198.5t-75 198.5t-189 76.5q-113 0 -188.5 -76.5t-75.5 -198.5t75.5 -198.5
t188.5 -76.5z" />
    <glyph glyph-name="uni01D3" unicode="&#x1d3;" horiz-adv-x="895" 
d="M189 1050h176l59 -65h49l59 65h176l-137 -164h-245zM448 -28q-197 0 -301 94.5t-104 283.5v490h201v-485q0 -102 51.5 -158.5t152.5 -56.5t153 56.5t52 158.5v485h200v-490q0 -189 -104 -283.5t-301 -94.5z" />
    <glyph glyph-name="uni01D4" unicode="&#x1d4;" horiz-adv-x="895" 
d="M189 1050h176l59 -65h49l59 65h176l-137 -164h-245zM448 -28q-197 0 -301 94.5t-104 283.5v490h201v-485q0 -102 51.5 -158.5t152.5 -56.5t153 56.5t52 158.5v485h200v-490q0 -189 -104 -283.5t-301 -94.5z" />
    <glyph glyph-name="uni01EA" unicode="&#x1ea;" horiz-adv-x="979" 
d="M568 -23q-19 -18 -19 -42q0 -25 20.5 -42t58.5 -17v-115q-35 0 -68 6.5t-67 21.5t-54.5 45t-20.5 72q0 39 18 68q-184 17 -296 139.5t-112 306.5q0 198 128 323t333 125q206 0 334 -125t128 -323q0 -178 -104.5 -298.5t-278.5 -144.5zM225 420q0 -122 75.5 -198.5
t188.5 -76.5q114 0 189 76.5t75 198.5t-75 198.5t-189 76.5q-113 0 -188.5 -76.5t-75.5 -198.5z" />
    <glyph glyph-name="uni0218" unicode="&#x218;" horiz-adv-x="837" 
d="M413 -28q-194 0 -292.5 71t-97.5 217h180q5 -61 57 -95t153 -35q96 0 148.5 30t52.5 80q0 43 -35 67t-112 37l-104 18q-56 10 -95 19.5t-84.5 29t-73 44.5t-46 66t-18.5 94q0 120 96.5 186.5t272.5 66.5q370 0 373 -285h-179q-22 127 -198 127q-85 0 -129.5 -27.5
t-44.5 -76.5q0 -75 127 -99l91 -16q6 -1 19 -3q152 -28 215 -59q122 -61 123 -195q0 -126 -102 -194t-297 -68zM375 -419q17 88 15 206h-84v150h227v-35q0 -223 -46 -321h-112z" />
    <glyph glyph-name="uni0219" unicode="&#x219;" horiz-adv-x="837" 
d="M413 -28q-194 0 -292.5 71t-97.5 217h180q5 -61 57 -95t153 -35q96 0 148.5 30t52.5 80q0 43 -35 67t-112 37l-104 18q-56 10 -95 19.5t-84.5 29t-73 44.5t-46 66t-18.5 94q0 120 96.5 186.5t272.5 66.5q370 0 373 -285h-179q-22 127 -198 127q-85 0 -129.5 -27.5
t-44.5 -76.5q0 -75 127 -99l91 -16q6 -1 19 -3q152 -28 215 -59q122 -61 123 -195q0 -126 -102 -194t-297 -68zM375 -419q17 88 15 206h-84v150h227v-35q0 -223 -46 -321h-112z" />
    <glyph glyph-name="uni021A" unicode="&#x21a;" horiz-adv-x="904" 
d="M38 840h829v-167h-315v-673h-200v673h-314v167zM341 -213v150h227v-35q0 -223 -46 -321h-112q17 88 15 206h-84z" />
    <glyph glyph-name="uni021B" unicode="&#x21b;" horiz-adv-x="904" 
d="M38 840h829v-167h-315v-673h-200v673h-314v167zM341 -213v150h227v-35q0 -223 -46 -321h-112q17 88 15 206h-84z" />
    <glyph glyph-name="circumflex" unicode="&#x2c6;" horiz-adv-x="519" 
d="M0 676l137 164h245l137 -164h-176l-59 65h-49l-59 -65h-176z" />
    <glyph glyph-name="caron" unicode="&#x2c7;" horiz-adv-x="519" 
d="M0 840h176l59 -65h49l59 65h176l-137 -164h-245z" />
    <glyph glyph-name="breve" unicode="&#x2d8;" horiz-adv-x="413" 
d="M207 680q-102 0 -155 39.5t-52 120.5h122q2 -70 85 -70q40 0 61.5 18.5t22.5 51.5h122q1 -81 -52 -120.5t-154 -39.5z" />
    <glyph glyph-name="dotaccent" unicode="&#x2d9;" horiz-adv-x="166" 
d="M83 690q-34 0 -58.5 23t-24.5 56q0 34 24.5 57t58.5 23t58.5 -23t24.5 -57q0 -33 -24.5 -56t-58.5 -23z" />
    <glyph glyph-name="ring" unicode="&#x2da;" horiz-adv-x="253" 
d="M127 598q-53 0 -90 37t-37 89t36.5 89t90.5 37q53 0 89.5 -37t36.5 -89t-36.5 -89t-89.5 -37zM126 690q15 0 25 9.5t10 25.5q0 15 -10 24.5t-25 9.5t-24.5 -9.5t-9.5 -24.5q0 -16 9.5 -25.5t24.5 -9.5z" />
    <glyph glyph-name="ogonek" unicode="&#x2db;" horiz-adv-x="231" 
d="M210 -241q-35 0 -68 6.5t-67 21.5t-54.5 45t-20.5 72q0 47 24.5 80t64 48t74 21t68.5 6v-59q-50 0 -75 -19.5t-25 -47.5q0 -25 20.5 -42t58.5 -17v-115z" />
    <glyph glyph-name="tilde" unicode="&#x2dc;" horiz-adv-x="452" 
d="M313 682q-43 0 -100 33.5t-86 33.5q-53 0 -59 -47h-67q-7 73 33.5 110.5t103.5 37.5q44 0 101.5 -33.5t85.5 -33.5q52 0 59 47h66q7 -73 -33 -110.5t-104 -37.5z" />
    <glyph glyph-name="hungarumlaut" unicode="&#x2dd;" horiz-adv-x="475" 
d="M0 676l71 164h179l-71 -164h-179zM244 676l71 164h179l-71 -164h-179z" />
    <glyph glyph-name="uni0326" unicode="&#x326;" horiz-adv-x="0" 
d="M-160 -419q17 88 15 206h-84v150h227v-35q0 -223 -46 -321h-112z" />
    <glyph glyph-name="uni0394" unicode="&#x394;" 
d="M618 840l326 -840h-931l325 840h280zM280 162h396l-185 489h-26z" />
    <glyph glyph-name="uni03A9" unicode="&#x3a9;" horiz-adv-x="960" 
d="M28 0v156h124v37q-116 118 -116 281q0 168 123 281t321 113q199 0 322 -113t123 -281q0 -162 -117 -281v-37h125v-156h-332v240q126 74 126 211q0 101 -68.5 172.5t-178.5 71.5q-109 0 -177.5 -71.5t-68.5 -172.5q0 -138 126 -211v-240h-332z" />
    <glyph glyph-name="uni03BC" unicode="&#x3bc;" horiz-adv-x="766" 
d="M524 680h199v-680h-194l-5 94h-21q-32 -52 -90 -80t-126 -28q-24 0 -45 3v-139h-199v830h199v-404q0 -67 37 -98t94 -31q70 0 110.5 39.5t40.5 74.5v419z" />
    <glyph glyph-name="pi" unicode="&#x3c0;" horiz-adv-x="923" 
d="M823 160q13 0 32.5 4.5t24.5 4.5v-139q-37 -38 -128 -38q-181 0 -181 182v358h-239v-532h-199v532h-90v148h818v-148h-90v-322q0 -50 52 -50z" />
    <glyph glyph-name="Wgrave" unicode="&#x1e80;" horiz-adv-x="1241" 
d="M713 886h-179l-71 164h179zM212 0l-188 840h201l134 -627h18l160 627h167l161 -627h18l133 627h202l-188 -840h-270l-130 530h-19l-130 -530h-269z" />
    <glyph glyph-name="wgrave" unicode="&#x1e81;" horiz-adv-x="1241" 
d="M713 886h-179l-71 164h179zM212 0l-188 840h201l134 -627h18l160 627h167l161 -627h18l133 627h202l-188 -840h-270l-130 530h-19l-130 -530h-269z" />
    <glyph glyph-name="Wacute" unicode="&#x1e82;" horiz-adv-x="1241" 
d="M532 886l71 164h179l-71 -164h-179zM212 0l-188 840h201l134 -627h18l160 627h167l161 -627h18l133 627h202l-188 -840h-270l-130 530h-19l-130 -530h-269z" />
    <glyph glyph-name="wacute" unicode="&#x1e83;" horiz-adv-x="1241" 
d="M532 886l71 164h179l-71 -164h-179zM212 0l-188 840h201l134 -627h18l160 627h167l161 -627h18l133 627h202l-188 -840h-270l-130 530h-19l-130 -530h-269z" />
    <glyph glyph-name="Wdieresis" unicode="&#x1e84;" horiz-adv-x="1241" 
d="M485 900q-34 0 -58.5 23t-24.5 56q0 34 24.5 57t58.5 23t58.5 -23t24.5 -57q0 -33 -24.5 -56t-58.5 -23zM758 900q-34 0 -58.5 23t-24.5 56q0 34 24.5 57t58.5 23t58.5 -23t24.5 -57q0 -33 -24.5 -56t-58.5 -23zM212 0l-188 840h201l134 -627h18l160 627h167l161 -627h18
l133 627h202l-188 -840h-270l-130 530h-19l-130 -530h-269z" />
    <glyph glyph-name="wdieresis" unicode="&#x1e85;" horiz-adv-x="1241" 
d="M485 900q-34 0 -58.5 23t-24.5 56q0 34 24.5 57t58.5 23t58.5 -23t24.5 -57q0 -33 -24.5 -56t-58.5 -23zM758 900q-34 0 -58.5 23t-24.5 56q0 34 24.5 57t58.5 23t58.5 -23t24.5 -57q0 -33 -24.5 -56t-58.5 -23zM212 0l-188 840h201l134 -627h18l160 627h167l161 -627h18
l133 627h202l-188 -840h-270l-130 530h-19l-130 -530h-269z" />
    <glyph glyph-name="uni1E9E" unicode="&#x1e9e;" horiz-adv-x="925" 
d="M621 494q125 10 201 -69t76 -189q0 -119 -80.5 -188.5t-219.5 -69.5q-296 0 -296 258h167q3 -52 37.5 -86t89.5 -34q61 0 95 33.5t34 86.5q0 56 -38.5 91t-90.5 35q-49 0 -83 -29h-168l216 340h-202q-114 0 -114 -124v-549h-202v583q0 139 69 198t213 59h528z" />
    <glyph glyph-name="Ygrave" unicode="&#x1ef2;" horiz-adv-x="909" 
d="M546 886h-179l-71 164h179zM901 840l-347 -571v-269h-200v270l-346 570h212l224 -376h21l224 376h212z" />
    <glyph glyph-name="ygrave" unicode="&#x1ef3;" horiz-adv-x="909" 
d="M546 886h-179l-71 164h179zM901 840l-347 -571v-269h-200v270l-346 570h212l224 -376h21l224 376h212z" />
    <glyph glyph-name="endash" unicode="&#x2013;" horiz-adv-x="900" 
d="M40 327v167h820v-167h-820z" />
    <glyph glyph-name="emdash" unicode="&#x2014;" horiz-adv-x="980" 
d="M40 327v167h900v-167h-900z" />
    <glyph glyph-name="quoteleft" unicode="&#x2018;" horiz-adv-x="329" 
d="M214 840q-18 -96 -16 -230h94v-168h-254v40q0 126 15 220t36 138h125z" />
    <glyph glyph-name="quoteright" unicode="&#x2019;" horiz-adv-x="329" 
d="M116 442q18 104 16 231h-94v167h254v-40q0 -124 -15 -218t-36 -140h-125z" />
    <glyph glyph-name="quotesinglbase" unicode="&#x201a;" horiz-adv-x="329" 
d="M116 -231q18 104 16 231h-94v167h254v-39q0 -125 -15 -219t-36 -140h-125z" />
    <glyph glyph-name="quotedblleft" unicode="&#x201c;" horiz-adv-x="581" 
d="M197 840q-16 -101 -14 -230h84v-168h-229v40q0 249 46 358h113zM473 840q-16 -101 -14 -230h84v-168h-229v40q0 249 46 358h113z" />
    <glyph glyph-name="quotedblright" unicode="&#x201d;" horiz-adv-x="581" 
d="M108 442q17 99 15 231h-85v167h229v-40q0 -247 -46 -358h-113zM384 442q17 99 15 231h-85v167h229v-40q0 -247 -46 -358h-113z" />
    <glyph glyph-name="quotedblbase" unicode="&#x201e;" horiz-adv-x="581" 
d="M108 -230q17 97 15 230h-85v167h229v-40q0 -248 -46 -357h-113zM384 -230q17 97 15 230h-85v167h229v-40q0 -248 -46 -357h-113z" />
    <glyph glyph-name="dagger" unicode="&#x2020;" horiz-adv-x="712" 
d="M662 700v-160h-222v-222h-168v222h-222v160h222v223h168v-223h222z" />
    <glyph glyph-name="daggerdbl" unicode="&#x2021;" horiz-adv-x="712" 
d="M440 210h222v-160h-222v-223h-168v223h-222v160h222v330h-222v160h222v223h168v-223h222v-160h-222v-330z" />
    <glyph glyph-name="bullet" unicode="&#x2022;" horiz-adv-x="544" 
d="M273 247q-71 0 -122 51t-51 122t51 122t122 51q70 0 120.5 -51t50.5 -122t-50.5 -122t-120.5 -51z" />
    <glyph glyph-name="ellipsis" unicode="&#x2026;" horiz-adv-x="880" 
d="M145 -16q-43 0 -74.5 31t-31.5 74t31.5 74.5t74.5 31.5q44 0 75.5 -31t31.5 -75q0 -43 -31.5 -74t-75.5 -31zM440 -16q-44 0 -75.5 31t-31.5 74q0 44 31.5 75t75.5 31t75 -31.5t31 -74.5t-31.5 -74t-74.5 -31zM734 -16q-43 0 -74.5 31t-31.5 74t31 74.5t75 31.5t75.5 -31
t31.5 -75q0 -43 -31.5 -74t-75.5 -31z" />
    <glyph glyph-name="perthousand" unicode="&#x2030;" horiz-adv-x="1555" 
d="M314 -31l-92 64l547 840l92 -63zM257 433q-102 0 -157 59t-55 151q0 91 55 150t157 59q103 0 158 -59t55 -150q0 -92 -55 -151t-158 -59zM257 562q39 0 59.5 23t20.5 58t-20.5 57.5t-59.5 22.5t-59 -22t-20 -58q0 -35 20 -58t59 -23zM825 -12q-103 0 -158 59t-55 151
q0 91 55 150t158 59q102 0 157 -59t55 -150q0 -92 -55 -151t-157 -59zM1297 -12q-103 0 -157.5 59t-54.5 151q0 91 54.5 150t157.5 59t157.5 -59t54.5 -150q0 -92 -54.5 -151t-157.5 -59zM825 117q39 0 59 23t20 58q0 36 -20 58.5t-59 22.5t-59.5 -22.5t-20.5 -58.5
q0 -35 20.5 -58t59.5 -23zM1297 117q39 0 59.5 23t20.5 58q0 36 -20.5 58.5t-59.5 22.5t-59 -22.5t-20 -58.5q0 -35 20 -58t59 -23z" />
    <glyph glyph-name="guilsinglleft" unicode="&#x2039;" horiz-adv-x="522" 
d="M461 135h-207l-194 285l194 285h207l-194 -285z" />
    <glyph glyph-name="guilsinglright" unicode="&#x203a;" horiz-adv-x="521" 
d="M60 135l194 285l-194 285h207l194 -285l-194 -285h-207z" />
    <glyph glyph-name="Euro" unicode="&#x20ac;" horiz-adv-x="949" 
d="M526 145q164 0 213 157h182q-14 -90 -53 -156t-94 -102.5t-116.5 -54t-131.5 -17.5q-165 0 -280 92.5t-147 246.5h-71v79h61q-1 10 -1 30v16h-60v78h68q28 161 144.5 257.5t285.5 96.5q69 0 131 -17t117 -54t94 -103t53 -155h-182q-49 156 -213 156q-84 0 -148 -49
t-89 -132h194v-78h-207v-16q0 -20 1 -30h206v-79h-189q28 -76 90 -121t142 -45z" />
    <glyph glyph-name="uni2116" unicode="&#x2116;" horiz-adv-x="1085" 
d="M850 432q-89 0 -148.5 60t-59.5 147t59.5 147t148.5 60t148.5 -60t59.5 -147t-59.5 -147t-148.5 -60zM43 0v840h172l181 -481h18v481h177v-840h-172l-181 481h-18v-481h-177zM850 563q32 0 53.5 22t21.5 54t-21.5 54.5t-53.5 22.5q-33 0 -54.5 -22t-21.5 -55
q0 -32 21.5 -54t54.5 -22zM661 197v159h378v-159h-378z" />
    <glyph glyph-name="trademark" unicode="&#x2122;" horiz-adv-x="834" 
d="M653 840h143v-371h-98v230h-10l-43 -230h-106l-43 230h-10v-230h-99v281h-112v-281h-105v281h-132v90h492l55 -267h14z" />
    <glyph glyph-name="partialdiff" unicode="&#x2202;" horiz-adv-x="783" 
d="M377 862q81 0 147.5 -23t120.5 -72.5t84 -138t30 -209.5q0 -441 -375 -441q-170 0 -265 78.5t-95 212.5t91 204t239 70q149 0 219 -65q2 231 -196 231q-71 0 -117 -27t-58 -82h-163q3 126 93.5 194t244.5 68zM385 130q80 0 129 38.5t49 104.5t-48 103.5t-130 37.5
q-83 0 -131.5 -37t-48.5 -104q0 -66 50 -104.5t130 -38.5z" />
    <glyph glyph-name="product" unicode="&#x220f;" horiz-adv-x="708" 
d="M43 900h623v-1050h-200v883h-224v-883h-199v1050z" />
    <glyph glyph-name="summation" unicode="&#x2211;" horiz-adv-x="708" 
d="M43 -150v167l325 349l-325 367v167h623v-167h-406l315 -354v-26l-315 -336h406v-167h-623z" />
    <glyph glyph-name="minus" unicode="&#x2212;" horiz-adv-x="662" 
d="M50 337v167h562v-167h-562z" />
    <glyph glyph-name="radical" unicode="&#x221a;" horiz-adv-x="813" 
d="M305 -150l-125 441h-130v167h247l117 -413h11l174 855h164l-220 -1050h-238z" />
    <glyph glyph-name="infinity" unicode="&#x221e;" horiz-adv-x="834" 
d="M608 628q87 0 131.5 -57t44.5 -150q0 -95 -44.5 -152t-131.5 -57q-62 0 -104.5 31.5t-86.5 94.5q-44 -63 -85.5 -94.5t-103.5 -31.5q-89 0 -133.5 57t-44.5 152q0 93 45 150t133 57q62 0 103 -32t86 -95q44 63 86.5 95t104.5 32zM247 334q27 0 51 19.5t63 67.5
q-40 48 -63.5 67.5t-50.5 19.5q-38 0 -55 -25t-17 -62q0 -87 72 -87zM587 334q72 0 72 87q0 37 -17 62t-55 25q-27 0 -50.5 -19.5t-62.5 -67.5q38 -48 62 -67.5t51 -19.5z" />
    <glyph glyph-name="integral" unicode="&#x222b;" horiz-adv-x="788" 
d="M232 -150q-107 0 -172 39v148q66 -28 128 -28q114 0 114 117v515q0 67 20.5 116.5t57 77.5t80.5 41t97 13q106 0 171 -39v-148q-65 29 -127 29q-51 0 -82.5 -27.5t-31.5 -89.5v-516q0 -67 -20.5 -116.5t-57 -77.5t-80.5 -41t-97 -13z" />
    <glyph glyph-name="approxequal" unicode="&#x2248;" horiz-adv-x="664" 
d="M441 432q-35 0 -69 13.5t-57 29t-52.5 28.5t-54.5 13q-32 0 -51 -16t-22 -43h-84q-8 91 42.5 138t129.5 47q54 0 125.5 -42t106.5 -42q32 1 51 16.5t23 42.5h84q8 -91 -42.5 -137.5t-129.5 -47.5zM441 197q-35 0 -69 13.5t-57 29t-52.5 28.5t-54.5 13q-32 0 -51 -16
t-22 -43h-84q-8 91 42.5 138t129.5 47q54 0 125.5 -42t106.5 -42q32 1 51 16.5t23 42.5h84q8 -91 -42.5 -137.5t-129.5 -47.5z" />
    <glyph glyph-name="notequal" unicode="&#x2260;" horiz-adv-x="662" 
d="M612 446h-168l-24 -52h192v-167h-267l-82 -183h-202l82 183h-93v167h168l24 52h-192v168h267l83 184h202l-83 -184h93v-168z" />
    <glyph glyph-name="lessequal" unicode="&#x2264;" horiz-adv-x="662" 
d="M603 247l-553 200v222l553 202v-173l-393 -129v-22l393 -129v-171zM50 0v167h562v-167h-562z" />
    <glyph glyph-name="greaterequal" unicode="&#x2265;" horiz-adv-x="672" 
d="M68 247v171l394 129v22l-394 129v173l554 -202v-222zM622 0h-562v167h562v-167z" />
    <glyph glyph-name="lozenge" unicode="&#x25ca;" horiz-adv-x="720" 
d="M260 0q-14 0 -20 13l-186 395q-6 12 0 24l186 395q6 13 20 13h200q16 0 20 -13l186 -395q6 -12 0 -24l-186 -395q-4 -13 -20 -13h-200zM360 147l128 273l-128 273l-128 -273z" />
    <glyph glyph-name="G.ss01" horiz-adv-x="964" 
d="M931 444q13 -219 -108 -345.5t-332 -126.5q-207 0 -335 125t-128 323t129 323t334 125q157 0 273.5 -73.5t148.5 -222.5h-199q-25 57 -81.5 90t-138.5 33q-116 0 -192.5 -77t-76.5 -198t74 -198t192 -77q52 0 97.5 14t86 52.5t55.5 97.5h-253v135h454z" />
    <glyph glyph-name="i.loclTRK" horiz-adv-x="285" 
d="M142 900q-34 0 -58.5 23t-24.5 56q0 34 24.5 57t58.5 23t58.5 -23t24.5 -57q0 -33 -24.5 -56t-58.5 -23zM43 0v840h199v-840h-199z" />
    <glyph glyph-name="g.ss01" horiz-adv-x="964" 
d="M931 444q13 -219 -108 -345.5t-332 -126.5q-207 0 -335 125t-128 323t129 323t334 125q157 0 273.5 -73.5t148.5 -222.5h-199q-25 57 -81.5 90t-138.5 33q-116 0 -192.5 -77t-76.5 -198t74 -198t192 -77q52 0 97.5 14t86 52.5t55.5 97.5h-253v135h454z" />
    </font>
</defs>
</svg>
